<?xml version="1.0" encoding="UTF-8"?>
<svg width="85px" height="76px" viewBox="0 0 85 76" version="1.1" xmlns="http://www.w3.org/2000/svg" xmlns:xlink="http://www.w3.org/1999/xlink">
    <!-- Generator: Sketch 59.1 (86144) - https://sketch.com -->
    <title>boid-power-increase</title>
    <desc>Created with Sketch.</desc>
    <defs>
        <polygon id="path-1" points="0.9399 0.505 76.4349 0.505 76.4349 75.9997 0.9399 75.9997"></polygon>
    </defs>
    <g id="Page-1" stroke="none" stroke-width="1" fill="none" fill-rule="evenodd">
        <g id="A4" transform="translate(-378.000000, -384.000000)">
            <g id="boid-power-increase" transform="translate(378.000000, 383.000000)">
                <g id="Group-30">
                    <g id="Group-3" transform="translate(4.000000, 0.495000)">
                        <mask id="mask-2" fill="white">
                            <use xlink:href="#path-1"></use>
                        </mask>
                        <g id="Clip-2"></g>
                        <path d="M76.4349,38.2527 C76.4349,59.0997 59.5349,75.9997 38.6879,75.9997 C17.8399,75.9997 0.9399,59.0997 0.9399,38.2527 C0.9399,17.4047 17.8399,0.5047 38.6879,0.5047 C59.5349,0.5047 76.4349,17.4047 76.4349,38.2527" id="Fill-1" fill="#EAF0F4" mask="url(#mask-2)"></path>
                    </g>
                    <polygon id="Fill-4" fill="#93F0B0" points="58.7767 34.0993 51.2777 38.8903 51.2777 55.5243 58.7767 55.5243"></polygon>
                    <path d="M51.7777,55.0241 L58.2767,55.0241 L58.2767,35.0121 L51.7777,39.1641 L51.7777,55.0241 Z M59.2767,56.0241 L50.7777,56.0241 L50.7777,38.6161 L59.2767,33.1871 L59.2767,56.0241 Z" id="Fill-6" fill="#FFFFFF"></path>
                    <polygon id="Fill-8" fill="#93F0B0" points="38.7806 55.5241 46.2796 55.5241 46.2796 42.0841 38.7806 46.8741"></polygon>
                    <path d="M39.2806,55.0241 L45.7796,55.0241 L45.7796,42.9961 L39.2806,47.1481 L39.2806,55.0241 Z M46.7796,56.0241 L38.2806,56.0241 L38.2806,46.6001 L46.7796,41.1711 L46.7796,56.0241 Z" id="Fill-10" fill="#FFFFFF"></path>
                    <polygon id="Fill-12" fill="#93F0B0" points="33.7816 50.0681 25.2426 55.5241 33.7816 55.5241"></polygon>
                    <path d="M26.9535,55.0241 L33.2815,55.0241 L33.2815,50.9811 L26.9535,55.0241 Z M34.2815,56.0241 L23.5315,56.0241 L34.2815,49.1551 L34.2815,56.0241 Z" id="Fill-14" fill="#FFFFFF"></path>
                    <polygon id="Fill-16" fill="#93F0B0" points="71.2738 26.1149 63.7758 30.9059 63.7758 55.5239 71.2738 55.5239"></polygon>
                    <path d="M64.2757,55.0241 L70.7737,55.0241 L70.7737,27.0271 L64.2757,31.1791 L64.2757,55.0241 Z M71.7737,56.0241 L63.2757,56.0241 L63.2757,30.6311 L71.7737,25.2021 L71.7737,56.0241 Z" id="Fill-18" fill="#FFFFFF"></path>
                    <polygon id="Fill-20" fill="#93F0B0" points="76.2728 22.9211 76.2728 55.5241 84.3958 55.5241 84.3958 17.7311"></polygon>
                    <path d="M76.7728,55.0241 L83.8958,55.0241 L83.8958,18.6441 L76.7728,23.1951 L76.7728,55.0241 Z M84.8958,56.0241 L75.7728,56.0241 L75.7728,22.6471 L84.8958,16.8181 L84.8958,56.0241 Z" id="Fill-22" fill="#FFFFFF"></path>
                    <polygon id="Fill-24" fill="#FFB74D" points="35.0267 33.6213 21.9787 33.1553 29.7217 10.0713 2.1727 42.2433 14.7557 42.2433 4.8377 66.7113"></polygon>
                    <path d="M32.304,5.5183 L28.963,9.4203 L1.413,41.5923 L0,43.2433 L2.173,43.2433 L13.271,43.2433 L3.91,66.3363 L1.813,71.5103 L5.575,67.3863 L35.766,34.2953 L37.222,32.6993 L35.063,32.6223 L23.353,32.2043 L30.67,10.3893 L32.304,5.5183 Z M29.722,10.0713 L21.979,33.1553 L35.027,33.6213 L4.837,66.7113 L14.755,42.2433 L2.173,42.2433 L29.722,10.0713 Z" id="Fill-26" fill="#FFFFFF"></path>
                    <polygon id="Fill-28" fill="#FECF37" points="35.0267 33.6213 21.9787 33.1553 29.7217 10.0713 13.8237 36.6503 24.3087 36.8833 4.8377 66.7113"></polygon>
                </g>
            </g>
        </g>
    </g>
</svg>