<?xml version="1.0" encoding="UTF-8"?>
<svg width="76px" height="82px" viewBox="0 0 76 82" version="1.1" xmlns="http://www.w3.org/2000/svg" xmlns:xlink="http://www.w3.org/1999/xlink">
    <!-- Generator: Sketch 59.1 (86144) - https://sketch.com -->
    <title>pick-a-coin 2</title>
    <desc>Created with Sketch.</desc>
    <defs>
        <polygon id="path-1" points="0.0001 0.002 51.2621 0.002 51.2621 51.2638 0.0001 51.2638"></polygon>
    </defs>
    <g id="Page-1" stroke="none" stroke-width="1" fill="none" fill-rule="evenodd">
        <g id="A4" transform="translate(-124.000000, -384.000000)">
            <g id="pick-a-coin-2" transform="translate(124.000000, 383.000000)">
                <g id="pick-a-coin">
                    <path d="M75.9608,40.6116 C75.9608,61.4586 59.0608,78.3596 38.2138,78.3596 C17.3658,78.3596 0.4658,61.4586 0.4658,40.6116 C0.4658,19.7646 17.3658,2.8636 38.2138,2.8636 C59.0608,2.8636 75.9608,19.7646 75.9608,40.6116" id="Fill-1" fill="#EAF0F4"></path>
                    <g id="Group-5" transform="translate(0.000000, 0.998300)">
                        <mask id="mask-2" fill="white">
                            <use xlink:href="#path-1"></use>
                        </mask>
                        <g id="Clip-4"></g>
                        <path d="M51.2621,25.6328 C51.2621,39.7878 39.7861,51.2638 25.6311,51.2638 C11.4751,51.2638 0.0001,39.7878 0.0001,25.6328 C0.0001,11.4768 11.4751,0.0018 25.6311,0.0018 C39.7861,0.0018 51.2621,11.4768 51.2621,25.6328" id="Fill-3" fill="#FFB74D" mask="url(#mask-2)"></path>
                    </g>
                    <path d="M25.6307,46.3977 C14.7317,46.3977 5.8637,37.5307 5.8637,26.6307 C5.8637,15.7307 14.7317,6.8637 25.6307,6.8637 C36.5307,6.8637 45.3977,15.7307 45.3977,26.6307 C45.3977,37.5307 36.5307,46.3977 25.6307,46.3977" id="Fill-6" fill="#FECF37"></path>
                    <path d="M21.0833,19.2942 C20.5913,19.2942 20.1833,19.1382 19.8593,18.8242 C19.5343,18.5112 19.3733,18.1092 19.3733,17.6172 C19.3733,17.2372 19.4613,16.9072 19.6413,16.6272 C19.8193,16.3482 20.0993,16.1412 20.4793,16.0062 L25.7123,14.1282 C25.9803,14.0392 26.1933,13.9942 26.3503,13.9942 C26.8413,13.9942 27.2443,14.1562 27.5573,14.4802 C27.8703,14.8052 28.0273,15.2242 28.0273,15.7382 L28.0273,38.4812 C28.0273,38.9512 27.8593,39.3542 27.5243,39.6892 C27.1883,40.0242 26.7743,40.1922 26.2833,40.1922 C25.8353,40.1922 25.4443,40.0242 25.1083,39.6892 C24.7733,39.3542 24.6053,38.9512 24.6053,38.4812 L24.6053,18.0192 L22.1573,19.0592 C21.7763,19.2162 21.4183,19.2942 21.0833,19.2942" id="Fill-8" fill="#FFB74D"></path>
                    <path d="M25.1058,17.2639 L25.1058,38.4819 C25.1058,38.8209 25.2188,39.0929 25.4618,39.3359 C25.9808,39.8539 26.7178,39.7889 27.1708,39.3359 C27.4138,39.0929 27.5268,38.8209 27.5268,38.4819 L27.5268,15.7389 C27.5268,15.3559 27.4188,15.0569 27.1978,14.8269 C26.9808,14.6029 26.7028,14.4939 26.3498,14.4939 C26.2928,14.4939 26.1558,14.5079 25.8698,14.6029 L20.6488,16.4769 C20.3718,16.5749 20.1808,16.7119 20.0628,16.8969 C19.9348,17.0959 19.8728,17.3309 19.8728,17.6169 C19.8728,17.9759 19.9788,18.2449 20.2068,18.4649 C20.6048,18.8519 21.2198,18.9039 21.9668,18.5969 L25.1058,17.2639 Z M26.2828,40.6929 C25.7008,40.6929 25.1868,40.4739 24.7548,40.0429 C24.3238,39.6119 24.1058,39.0869 24.1058,38.4819 L24.1058,18.7749 L22.3528,19.5199 C21.2128,19.9869 20.1968,19.8469 19.5118,19.1839 C19.0878,18.7759 18.8728,18.2479 18.8728,17.6169 C18.8728,17.1409 18.9898,16.7169 19.2198,16.3579 C19.4598,15.9829 19.8278,15.7059 20.3138,15.5349 L25.5438,13.6579 C25.8798,13.5459 26.1398,13.4939 26.3498,13.4939 C26.9798,13.4939 27.5058,13.7089 27.9168,14.1329 C28.3218,14.5529 28.5268,15.0929 28.5268,15.7389 L28.5268,38.4819 C28.5268,39.0869 28.3088,39.6119 27.8778,40.0429 C27.4468,40.4739 26.9098,40.6929 26.2828,40.6929 L26.2828,40.6929 Z" id="Fill-10" fill="#FFFFFF"></path>
                    <path d="M53.784,53.5252 L40.238,49.1372 L40.238,29.0422 C40.238,26.7542 38.367,24.8842 36.08,24.8842 C33.793,24.8842 31.923,26.7542 31.923,29.0422 L31.923,46.6622 L27.128,45.0402 C27.128,45.0402 25.488,44.1622 25.488,46.1862 L25.488,66.8572 L31.923,77.7472 L31.923,82.4982 L50.236,82.4982 L54.889,82.4982 L57.124,71.2052 L58.541,60.0992 C58.937,56.9962 57.413,54.8792 53.784,53.5252" id="Fill-12" fill="#FAC4A3"></path>
                    <path d="M32.4227,81.9983 L54.4787,81.9983 L56.6327,71.1083 L58.0447,60.0363 C58.4087,57.1813 57.0027,55.2623 53.6197,53.9973 L39.7377,49.5013 L39.7377,29.0413 C39.7377,27.0243 38.0977,25.3843 36.0807,25.3843 C34.0637,25.3843 32.4227,27.0243 32.4227,29.0413 L32.4227,47.3593 L26.9677,45.5133 C26.7537,45.4093 26.3877,45.2843 26.2107,45.3923 C26.0707,45.4773 25.9877,45.7733 25.9877,46.1863 L25.9877,66.7203 L32.4227,77.6103 L32.4227,81.9983 Z M55.2997,82.9983 L31.4227,82.9983 L31.4227,77.8833 L24.9877,66.9943 L24.9877,46.1863 C24.9877,45.3723 25.2267,44.8153 25.6977,44.5333 C26.4037,44.1083 27.2677,44.5483 27.3637,44.5993 L31.4227,45.9663 L31.4227,29.0413 C31.4227,26.4733 33.5117,24.3843 36.0807,24.3843 C38.6487,24.3843 40.7377,26.4733 40.7377,29.0413 L40.7377,48.7733 L53.9587,53.0573 C57.8027,54.4913 59.4647,56.8153 59.0367,60.1633 L57.6197,71.2693 L55.2997,82.9983 Z" id="Fill-14" fill="#FFFFFF"></path>
                    <path d="M31.9227,61.6155 C31.6467,61.6155 31.4227,61.3915 31.4227,61.1155 L31.4227,46.8255 C31.4227,46.5495 31.6467,46.3255 31.9227,46.3255 C32.1987,46.3255 32.4227,46.5495 32.4227,46.8255 L32.4227,61.1155 C32.4227,61.3915 32.1987,61.6155 31.9227,61.6155" id="Fill-16" fill="#C9A089"></path>
                </g>
            </g>
        </g>
    </g>
</svg>