<?xml version="1.0" encoding="UTF-8"?>
<svg width="86px" height="76px" viewBox="0 0 86 76" version="1.1" xmlns="http://www.w3.org/2000/svg" xmlns:xlink="http://www.w3.org/1999/xlink">
    <!-- Generator: Sketch 59.1 (86144) - https://sketch.com -->
    <title>send-the-donation</title>
    <desc>Created with Sketch.</desc>
    <defs>
        <polygon id="path-1" points="0.3739 0.505 75.8689 0.505 75.8689 75.9997 0.3739 75.9997"></polygon>
        <polygon id="path-3" points="0 76.495 85.233 76.495 85.233 1 0 1"></polygon>
    </defs>
    <g id="Page-1" stroke="none" stroke-width="1" fill="none" fill-rule="evenodd">
        <g id="A4" transform="translate(-255.000000, -384.000000)">
            <g id="send-the-donation" transform="translate(255.000000, 383.000000)">
                <g id="Group-12">
                    <g id="Group-3" transform="translate(1.000000, 0.495000)">
                        <mask id="mask-2" fill="white">
                            <use xlink:href="#path-1"></use>
                        </mask>
                        <g id="Clip-2"></g>
                        <path d="M75.8689,38.2527 C75.8689,59.0997 58.9689,75.9997 38.1209,75.9997 C17.2739,75.9997 0.3739,59.0997 0.3739,38.2527 C0.3739,17.4047 17.2739,0.5047 38.1209,0.5047 C58.9689,0.5047 75.8689,17.4047 75.8689,38.2527" id="Fill-1" fill="#EAF0F4" mask="url(#mask-2)"></path>
                    </g>
                    <mask id="mask-4" fill="white">
                        <use xlink:href="#path-3"></use>
                    </mask>
                    <g id="Clip-5"></g>
                    <polygon id="Fill-4" fill="#FFB74D" mask="url(#mask-4)" points="0 18.946 34.369 18.946 34.369 15.946 0 15.946"></polygon>
                    <polygon id="Fill-6" fill="#FFB74D" mask="url(#mask-4)" points="3.34 31.063 27.709 31.063 27.709 28.063 3.34 28.063"></polygon>
                    <polygon id="Fill-7" fill="#FFB74D" mask="url(#mask-4)" points="7.68 43.179 27.049 43.179 27.049 40.179 7.68 40.179"></polygon>
                    <path d="M85.2332,38.7477 C85.2332,52.9027 73.7572,64.3787 59.6022,64.3787 C45.4462,64.3787 33.9712,52.9027 33.9712,38.7477 C33.9712,24.5917 45.4462,13.1167 59.6022,13.1167 C73.7572,13.1167 85.2332,24.5917 85.2332,38.7477" id="Fill-8" fill="#FFB74D" mask="url(#mask-4)"></path>
                    <path d="M59.6018,58.5143 C48.7028,58.5143 39.8348,49.6473 39.8348,38.7473 C39.8348,27.8473 48.7028,18.9803 59.6018,18.9803 C70.5018,18.9803 79.3688,27.8473 79.3688,38.7473 C79.3688,49.6473 70.5018,58.5143 59.6018,58.5143" id="Fill-9" fill="#FECF37" mask="url(#mask-4)"></path>
                    <path d="M55.054,31.4108 C54.562,31.4108 54.154,31.2548 53.83,30.9408 C53.505,30.6278 53.344,30.2258 53.344,29.7338 C53.344,29.3538 53.432,29.0238 53.612,28.7438 C53.79,28.4648 54.07,28.2578 54.45,28.1228 L59.683,26.2448 C59.951,26.1558 60.164,26.1108 60.321,26.1108 C60.812,26.1108 61.215,26.2728 61.528,26.5968 C61.841,26.9218 61.998,27.3408 61.998,27.8548 L61.998,50.5978 C61.998,51.0678 61.83,51.4708 61.495,51.8058 C61.159,52.1408 60.745,52.3088 60.254,52.3088 C59.806,52.3088 59.415,52.1408 59.079,51.8058 C58.744,51.4708 58.576,51.0678 58.576,50.5978 L58.576,30.1358 L56.128,31.1758 C55.747,31.3328 55.389,31.4108 55.054,31.4108" id="Fill-10" fill="#FFB74D" mask="url(#mask-4)"></path>
                    <path d="M59.0764,29.3805 L59.0764,50.5985 C59.0764,50.9375 59.1894,51.2095 59.4324,51.4525 C59.9514,51.9705 60.6884,51.9055 61.1414,51.4525 C61.3844,51.2095 61.4974,50.9375 61.4974,50.5985 L61.4974,27.8555 C61.4974,27.4725 61.3894,27.1735 61.1684,26.9435 C60.9514,26.7195 60.6734,26.6105 60.3204,26.6105 C60.2634,26.6105 60.1264,26.6245 59.8404,26.7195 L54.6194,28.5935 C54.3424,28.6915 54.1514,28.8285 54.0334,29.0135 C53.9054,29.2125 53.8434,29.4475 53.8434,29.7335 C53.8434,30.0925 53.9494,30.3615 54.1774,30.5815 C54.5754,30.9675 55.1904,31.0205 55.9374,30.7135 L59.0764,29.3805 Z M60.2534,52.8095 C59.6714,52.8095 59.1574,52.5905 58.7254,52.1595 C58.2944,51.7285 58.0764,51.2035 58.0764,50.5985 L58.0764,30.8915 L56.3234,31.6365 C55.1834,32.1035 54.1664,31.9635 53.4824,31.3005 C53.0584,30.8925 52.8434,30.3645 52.8434,29.7335 C52.8434,29.2575 52.9604,28.8335 53.1904,28.4745 C53.4304,28.0995 53.7984,27.8225 54.2844,27.6515 L59.5144,25.7745 C59.8504,25.6625 60.1104,25.6105 60.3204,25.6105 C60.9504,25.6105 61.4764,25.8255 61.8874,26.2495 C62.2924,26.6695 62.4974,27.2095 62.4974,27.8555 L62.4974,50.5985 C62.4974,51.2035 62.2794,51.7285 61.8484,52.1595 C61.4174,52.5905 60.8804,52.8095 60.2534,52.8095 L60.2534,52.8095 Z" id="Fill-11" fill="#FFFFFF" mask="url(#mask-4)"></path>
                </g>
            </g>
        </g>
    </g>
</svg>