<svg id="Layer_1" data-name="Layer 1" xmlns="http://www.w3.org/2000/svg" xmlns:xlink="http://www.w3.org/1999/xlink" viewBox="0 0 46.62 89.79"><defs><style>.cls-1{fill:none;}.cls-2{clip-path:url(#clip-path);}.cls-3{fill:#ffb74d;}.cls-4{fill:#fecf37;}</style><clipPath id="clip-path" transform="translate(-27 -5)"><rect class="cls-1" x="27" y="5" width="46.62" height="89.79"/></clipPath></defs><title>BoidPower</title><g id="Artwork_1" data-name="Artwork 1"><g class="cls-2"><g class="cls-2"><path class="cls-3" d="M71.75,40.36l-15.92,2,11.35-32c1.15-3.25,1.13-4.26.71-4.85A1.14,1.14,0,0,0,67,5c-.32,0-1.3,0-3.82,3.44L27.27,56.86a1.86,1.86,0,0,0,1.59,2.83L43,58.4,29.78,92.25a1.85,1.85,0,0,0,1,2.41,2,2,0,0,0,.68.12A1.9,1.9,0,0,0,33,94.1L73.19,43.41a1.86,1.86,0,0,0-1.44-3" transform="translate(-27 -5)"/><path class="cls-4" d="M73.44,41.43a1.88,1.88,0,0,0-1.69-1.07l-15.92,2,11.35-32c1.15-3.25,1.13-4.26.71-4.85A1.16,1.16,0,0,0,67,5L42.75,49.9l15.25-3a2.61,2.61,0,0,1,3.09,2,2.58,2.58,0,0,1-.42,2L30.4,94.42l.17.12a1.89,1.89,0,0,0,2.4-.43l40.22-50.7a1.86,1.86,0,0,0,.25-2" transform="translate(-27 -5)"/></g></g></g></svg>