<?xml version="1.0" encoding="utf-8"?>
<!-- Generator: Adobe Illustrator 22.0.0, SVG Export Plug-In . SVG Version: 6.00 Build 0)  -->
<svg version="1.1" id="Layer_1" xmlns="http://www.w3.org/2000/svg" xmlns:xlink="http://www.w3.org/1999/xlink" x="0px" y="0px"
	 viewBox="0 0 600 600" style="enable-background:new 0 0 600 600;" xml:space="preserve">
<style type="text/css">
	.st0{fill:#E4E9F3;}
	.st1{fill:#FFFFFF;}
	.st2{fill:#D6DCEB;}
	.st3{fill:#E4E9F3;stroke:#D6DCEB;stroke-width:0.5794;stroke-linecap:round;stroke-linejoin:round;stroke-miterlimit:10;}
	.st4{fill:#B9C1D9;}
	.st5{fill:#F4D86E;}
	.st6{fill:#E6B244;}
	.st7{fill:#D09D2D;}
	.st8{opacity:0.3;}
	.st9{fill:url(#SVGID_1_);}
	.st10{fill:#C6D4E8;}
	.st11{fill:#E1E9F5;}
	.st12{opacity:0.8;fill:#659BF8;}
	
		.st13{opacity:0.7;fill:none;stroke:#659BF8;stroke-width:4.4019;stroke-linecap:round;stroke-linejoin:round;stroke-miterlimit:10;stroke-dasharray:7.7033;}
	.st14{clip-path:url(#SVGID_3_);}
	.st15{clip-path:url(#SVGID_5_);}
	.st16{fill:#FFB74D;}
	.st17{fill:#FECF37;}
	.st18{opacity:0.2;fill:#3D3D41;}
	.st19{fill:#EBB7AC;}
	.st20{fill:#F4D9D5;}
	.st21{fill:#D44F65;}
</style>
<g id="XMLID_232_">
	<g id="XMLID_859_">
		<polygon class="st0" points="433.8,287.3 232.3,403.6 232.3,209.7 433.8,93.4 		"/>
	</g>
	<polygon id="XMLID_858_" class="st1" points="429.1,284.6 429.1,101.5 237,212.4 237,395.5 	"/>
	<polygon id="XMLID_857_" class="st2" points="568.1,364.8 366.6,481.2 232.3,403.6 433.8,287.3 	"/>
	<polygon id="XMLID_856_" class="st3" points="500.4,403.6 433.2,442.3 392.1,418.6 459.3,379.8 	"/>
	<g id="XMLID_853_">
		<polygon class="st2" points="428.5,90.4 433.8,93.4 232.3,209.7 227,206.7 		"/>
	</g>
	<g id="XMLID_850_">
		<path class="st4" d="M229.2,406.6l3.1,1.8V209.7l-5.3-3l0,196.1C227,404.3,227.8,405.8,229.2,406.6z"/>
	</g>
	<g id="XMLID_847_">
		<polygon class="st4" points="366.6,485.9 366.6,481.2 232.3,403.6 232.3,408.3 		"/>
	</g>
	<g id="XMLID_844_">
		<polygon class="st0" points="568.1,369.6 568.1,364.8 366.6,481.2 366.6,485.9 		"/>
	</g>
	<g id="XMLID_769_">
		<polygon id="XMLID_843_" class="st3" points="390,318.3 404.7,326.8 390,335.3 375.3,326.8 		"/>
		<polygon id="XMLID_842_" class="st3" points="375.3,326.8 390,335.3 375.3,343.8 360.6,335.3 		"/>
		<polygon id="XMLID_841_" class="st3" points="360.6,335.3 375.3,343.8 360.6,352.3 345.9,343.8 		"/>
		<polygon id="XMLID_840_" class="st3" points="345.9,343.8 360.6,352.3 345.9,360.8 331.2,352.3 		"/>
		<polygon id="XMLID_839_" class="st3" points="331.2,352.3 345.9,360.8 331.2,369.3 316.5,360.8 		"/>
		<polygon id="XMLID_838_" class="st3" points="316.5,360.8 331.2,369.3 316.5,377.8 301.8,369.3 		"/>
		<polygon id="XMLID_837_" class="st3" points="404.7,326.8 419.4,335.3 404.7,343.8 390,335.3 		"/>
		<polygon id="XMLID_836_" class="st3" points="390,335.3 404.7,343.8 390,352.3 375.3,343.8 		"/>
		<polygon id="XMLID_835_" class="st3" points="375.3,343.8 390,352.3 375.3,360.8 360.6,352.3 		"/>
		<polygon id="XMLID_834_" class="st3" points="360.6,352.3 375.3,360.8 360.6,369.3 345.9,360.8 		"/>
		<polygon id="XMLID_833_" class="st3" points="316.5,377.8 331.2,369.3 345.9,360.8 360.6,369.3 345.9,377.8 345.9,377.8 
			331.2,386.2 		"/>
		<polygon id="XMLID_832_" class="st3" points="301.3,368.7 316,377.2 301.3,385.7 286.6,377.2 		"/>
		<polygon id="XMLID_831_" class="st3" points="286.6,377.2 301.3,385.7 286.6,394.2 271.9,385.7 		"/>
		<polygon id="XMLID_830_" class="st3" points="271.9,385.7 286.6,394.2 271.9,402.7 257.2,394.2 		"/>
		<polygon id="XMLID_829_" class="st3" points="316,377.2 330.7,385.7 316,394.2 301.3,385.7 		"/>
		<polygon id="XMLID_828_" class="st3" points="301.3,385.7 316,394.2 301.3,402.7 286.6,394.2 		"/>
		<polygon id="XMLID_827_" class="st3" points="286.6,394.2 301.3,402.7 286.6,411.1 271.9,402.7 		"/>
		<polygon id="XMLID_826_" class="st3" points="257.2,394.2 271.9,402.7 257.2,411.1 242.5,402.7 		"/>
		<polygon id="XMLID_825_" class="st3" points="271.9,402.7 286.6,411.1 271.9,419.6 257.2,411.1 		"/>
		<polygon id="XMLID_824_" class="st3" points="419.4,335.3 434.1,343.8 419.4,352.3 404.7,343.8 		"/>
		<polygon id="XMLID_823_" class="st3" points="404.7,343.8 419.4,352.3 404.7,360.8 390,352.3 		"/>
		<polygon id="XMLID_822_" class="st3" points="390,352.3 404.7,360.8 390,369.3 375.3,360.8 		"/>
		<polygon id="XMLID_821_" class="st3" points="375.3,360.8 390,369.3 375.3,377.8 360.6,369.3 		"/>
		<polygon id="XMLID_820_" class="st3" points="360.6,369.3 375.3,377.8 360.6,386.2 345.9,377.8 		"/>
		<polygon id="XMLID_819_" class="st3" points="345.9,377.8 360.6,386.2 345.9,394.7 331.2,386.2 		"/>
		<polygon id="XMLID_818_" class="st3" points="330.7,385.7 345.4,394.2 330.7,402.7 316,394.2 		"/>
		<polygon id="XMLID_817_" class="st3" points="316,394.2 330.7,402.7 316,411.1 301.3,402.7 		"/>
		<polygon id="XMLID_816_" class="st3" points="301.3,402.7 316,411.1 301.3,419.6 286.6,411.1 		"/>
		<polygon id="XMLID_815_" class="st3" points="286.6,411.1 301.3,419.6 286.6,428.1 271.9,419.6 		"/>
		<polygon id="XMLID_814_" class="st3" points="434.1,343.8 448.8,352.3 434.1,360.8 419.4,352.3 		"/>
		<polygon id="XMLID_813_" class="st3" points="419.4,352.3 434.1,360.8 419.4,369.3 404.7,360.8 		"/>
		<polygon id="XMLID_812_" class="st3" points="404.7,360.8 419.4,369.3 404.7,377.8 390,369.3 		"/>
		<polygon id="XMLID_811_" class="st3" points="390,369.3 404.7,377.8 390,386.2 375.3,377.8 		"/>
		<polygon id="XMLID_810_" class="st3" points="375.3,377.8 390,386.2 375.3,394.7 360.6,386.2 		"/>
		<polygon id="XMLID_809_" class="st3" points="360.6,386.2 375.3,394.7 360.6,403.2 345.9,394.7 		"/>
		<polygon id="XMLID_808_" class="st3" points="345.4,394.2 360.1,402.7 345.4,411.1 330.7,402.7 		"/>
		<polygon id="XMLID_807_" class="st3" points="330.7,402.7 345.4,411.1 330.7,419.6 316,411.1 		"/>
		<polygon id="XMLID_806_" class="st3" points="316,411.1 330.7,419.6 316,428.1 301.3,419.6 		"/>
		<polygon id="XMLID_805_" class="st3" points="301.3,419.6 316,428.1 301.3,436.6 286.6,428.1 		"/>
		<polygon id="XMLID_804_" class="st3" points="448.8,352.3 463.5,360.8 448.8,369.3 434.1,360.8 		"/>
		<polygon id="XMLID_803_" class="st3" points="434.1,360.8 448.8,369.3 434.1,377.8 419.4,369.3 		"/>
		<polygon id="XMLID_802_" class="st3" points="419.4,369.3 434.1,377.8 419.4,386.2 404.7,377.8 		"/>
		<polygon id="XMLID_801_" class="st3" points="404.7,377.8 419.4,386.2 404.7,394.7 390,386.2 		"/>
		<polygon id="XMLID_800_" class="st3" points="375.3,394.7 390,386.2 404.7,394.7 390,403.2 375.3,411.7 360.6,403.2 		"/>
		<polygon id="XMLID_799_" class="st3" points="360.1,402.7 374.8,411.1 360.1,419.6 345.4,411.1 		"/>
		<polygon id="XMLID_798_" class="st3" points="345.4,411.1 360.1,419.6 345.4,428.1 330.7,419.6 		"/>
		<polygon id="XMLID_797_" class="st3" points="330.7,419.6 345.4,428.1 330.7,436.6 316,428.1 		"/>
		<polygon id="XMLID_796_" class="st3" points="316,428.1 330.7,436.6 316,445.1 301.3,436.6 		"/>
		<polygon id="XMLID_795_" class="st3" points="404.7,309.9 419.4,318.3 404.7,326.8 390,318.3 		"/>
		<polygon id="XMLID_794_" class="st3" points="419.4,318.3 434.1,326.8 419.4,335.3 404.7,326.8 		"/>
		<polygon id="XMLID_793_" class="st3" points="434.1,326.8 448.8,335.3 434.1,343.8 419.4,335.3 		"/>
		<polygon id="XMLID_792_" class="st3" points="448.8,335.3 463.5,343.8 448.8,352.3 434.1,343.8 		"/>
		<polygon id="XMLID_791_" class="st3" points="463.5,343.8 478.2,352.3 463.5,360.8 448.8,352.3 		"/>
		<polygon id="XMLID_790_" class="st3" points="419.4,301.4 434.1,309.9 419.4,318.3 404.7,309.9 		"/>
		<polygon id="XMLID_789_" class="st3" points="434.1,309.9 448.8,318.3 434.1,326.8 419.4,318.3 		"/>
		<polygon id="XMLID_788_" class="st3" points="463.5,326.8 478.2,335.3 463.5,343.8 448.8,335.3 		"/>
		<polygon id="XMLID_787_" class="st3" points="478.2,335.3 492.9,343.8 478.2,352.3 463.5,343.8 		"/>
		<polygon id="XMLID_786_" class="st3" points="492.9,343.8 507.6,352.3 492.9,360.8 478.2,352.3 		"/>
		<polygon id="XMLID_785_" class="st3" points="434.1,292.9 448.8,301.4 434.1,309.9 419.4,301.4 		"/>
		<polygon id="XMLID_784_" class="st3" points="448.8,301.4 463.5,309.9 448.8,318.3 434.1,309.9 		"/>
		<polygon id="XMLID_783_" class="st3" points="434.3,326.8 449,318.3 449,318.3 463.7,309.9 478.4,318.3 463.7,326.8 463.7,326.8 
			449,335.3 		"/>
		<polygon id="XMLID_782_" class="st3" points="478.2,318.3 492.9,326.8 478.2,335.3 463.5,326.8 		"/>
		<polygon id="XMLID_781_" class="st3" points="492.9,326.8 507.6,335.3 492.9,343.8 478.2,335.3 		"/>
		<polygon id="XMLID_780_" class="st3" points="507.6,335.3 522.3,343.8 507.6,352.3 492.9,343.8 		"/>
		<polygon id="XMLID_779_" class="st3" points="434.4,377.8 449,369.3 448.8,369.3 463.5,360.8 478.2,352.3 492.9,360.8 
			478.2,369.3 463.7,377.7 463.8,377.8 449.1,386.2 434.4,394.7 419.7,386.2 		"/>
		<polygon id="XMLID_778_" class="st3" points="419.4,386.2 434.1,394.7 419.4,403.2 404.7,394.7 		"/>
		<polygon id="XMLID_777_" class="st3" points="404.7,394.7 419.4,403.2 404.7,411.7 390,403.2 		"/>
		<polygon id="XMLID_776_" class="st3" points="390,403.2 404.7,411.7 390,420.2 375.3,411.7 		"/>
		<polygon id="XMLID_775_" class="st3" points="374.8,411.1 389.5,419.6 374.8,428.1 360.1,419.6 		"/>
		<polygon id="XMLID_774_" class="st3" points="360.1,419.6 374.8,428.1 360.1,436.6 345.4,428.1 		"/>
		<polygon id="XMLID_773_" class="st3" points="345.4,428.1 360.1,436.6 345.4,445.1 330.7,436.6 		"/>
		<polygon id="XMLID_772_" class="st3" points="330.7,436.6 345.4,445.1 330.7,453.6 316,445.1 		"/>
	</g>
</g>
<g id="XMLID_1_">
	
		<ellipse id="XMLID_188_" transform="matrix(0.5 -0.866 0.866 0.5 117.8889 540.0588)" class="st5" cx="526.7" cy="167.9" rx="43.6" ry="25.2"/>
	<g id="XMLID_186_">
		
			<ellipse id="XMLID_187_" transform="matrix(0.5 -0.866 0.866 0.5 117.8889 540.0588)" class="st6" cx="526.7" cy="167.9" rx="38.2" ry="22.1"/>
	</g>
	<g id="XMLID_9_">
		<g id="XMLID_183_">
			<polygon id="XMLID_185_" class="st7" points="524.1,154.8 520.6,156.8 520.6,149 524.1,147 			"/>
			<polygon id="XMLID_184_" class="st7" points="530.8,151 527.3,153 527.3,145.1 530.8,143.1 			"/>
		</g>
		<g id="XMLID_180_">
			<polygon id="XMLID_182_" class="st7" points="524.1,192.1 520.6,194.1 520.6,186.2 524.1,184.2 			"/>
			<polygon id="XMLID_181_" class="st7" points="530.8,188.2 527.3,190.2 527.3,182.4 530.8,180.4 			"/>
		</g>
		<g id="XMLID_17_">
			<path id="XMLID_25_" class="st7" d="M540.8,151.8c0,3.7-2.1,7.9-5.3,10.8c3.9-1.3,6.3,0.8,6.3,5.3c0,6.1-4.6,12.6-11.9,16.8
				l-15.2,8.8v-35.7l14.7-8.5C536.4,145.4,540.8,146.3,540.8,151.8z M532.5,158.2c0-2.1-1.4-2.6-3.6-1.3l-6.2,3.6v6.9l6.2-3.6
				C531.2,162.6,532.5,160.5,532.5,158.2z M533.5,171.6c0-2.2-1.8-2.6-4.6-1l-6.2,3.6v7.5l6.2-3.6
				C531.7,176.5,533.5,174.1,533.5,171.6z"/>
		</g>
		<path id="XMLID_10_" class="st5" d="M542.3,167.2c0-4.6-2.4-6.7-6.3-5.3c3.3-2.9,5.3-7.1,5.3-10.8c0-5.1-3.9-6.3-10-3.2v-5l-3.5,2
			v5l-3.2,1.9v-5l-3.5,2v5l-5.9,3.4v35.7l5.9-3.4v4.5l3.5-2v-4.5l3.2-1.9v4.5l3.5-2v-4.5C538,179.3,542.3,173.1,542.3,167.2z
			 M533,157.4c0,2.2-1.4,4.4-3.6,5.6l-6.2,3.6v-6.9l6.2-3.6C531.6,154.8,533,155.3,533,157.4z M529.4,177.3l-6.2,3.6v-7.5l6.2-3.6
			c2.8-1.7,4.6-1.3,4.6,1C534,173.3,532.2,175.7,529.4,177.3z"/>
	</g>
	<path id="XMLID_8_" class="st7" d="M526.7,136.7c-4.5,2.6-8.7,6.3-12.5,10.7c3.5-3.9,7.4-7.3,11.5-9.6c14.9-8.6,27-1.6,27,15.6
		c0,12.1-5.9,25.9-14.6,36.1c9.2-10.3,15.5-24.7,15.5-37.2C553.7,135.1,541.6,128.1,526.7,136.7z"/>
</g>
<g id="XMLID_391_" class="st8">
	
		<linearGradient id="SVGID_1_" gradientUnits="userSpaceOnUse" x1="505.581" y1="448.1978" x2="567.4364" y2="408.4336" gradientTransform="matrix(-1 0 0 1 626.3712 0)">
		<stop  offset="0" style="stop-color:#000000"/>
		<stop  offset="1" style="stop-color:#000000;stop-opacity:0"/>
	</linearGradient>
	<polygon class="st9" points="102.7,471.6 8,419.1 68.6,384.5 152.9,425.4 	"/>
</g>
<g id="XMLID_20_">
	<path class="st10" d="M159.7,448.1l-39.2,22.3c-13.2,7.5-29.6-2-29.6-17.2V288.7c0-3.2,1.7-6.1,4.4-7.7l60.9-35.3
		c5.9-3.5,13.4,0.8,13.4,7.7v177.6C169.7,438,165.9,444.5,159.7,448.1z"/>
</g>
<g id="XMLID_19_">
	<path class="st11" d="M162.6,449.7L123.4,472c-13.2,7.5-29.6-2-29.6-17.2V290.3c0-3.2,1.7-6.1,4.4-7.7l60.9-35.3
		c5.9-3.5,13.4,0.8,13.4,7.7v177.6C172.6,439.6,168.8,446.2,162.6,449.7z"/>
</g>
<path id="XMLID_18_" class="st12" d="M180.2,432.5v-84.3L101.5,392v62.8c0,15.2,16.4,24.7,29.6,17.2l39.2-22.3
	C176.4,446.2,180.2,439.6,180.2,432.5z"/>
<polyline class="st13" points="158.8,464.5 206.1,492 284.2,446.9 "/>
<polyline class="st13" points="507.6,318.1 583,273.6 530.2,239.4 "/>
<g>
	<g>
		<defs>
			<polygon id="SVGID_2_" points="311.2,205.1 366.4,173.2 366.4,296.1 311.2,327.9 			"/>
		</defs>
		<clipPath id="SVGID_3_">
			<use xlink:href="#SVGID_2_"  style="overflow:visible;"/>
		</clipPath>
		<g id="Artwork_1_1_" class="st14">
			<g>
				<defs>
					<polygon id="SVGID_4_" points="311.2,205.1 366.4,173.2 366.4,296.1 311.2,327.9 					"/>
				</defs>
				<clipPath id="SVGID_5_">
					<use xlink:href="#SVGID_4_"  style="overflow:visible;"/>
				</clipPath>
				<g class="st15">
					<path class="st16" d="M364.2,222.9l-18.9,13.6l13.4-51.5c1.4-5.2,1.3-6.6,0.8-7.1c-0.2-0.3-0.6-0.3-1.1-0.1
						c-0.4,0.2-1.5,0.9-4.5,7.3l-42.5,90.8c-0.6,1.6-0.3,2.9,0.7,3.1c0.3,0,0.7-0.1,1.2-0.3l16.7-11.4l-15.7,55.3
						c-0.5,1.6,0.1,2.7,1.2,2.6c0.3,0,0.5-0.1,0.8-0.3c0.7-0.4,1.4-1.1,1.8-2l47.6-96.8c0.7-1.5,0.6-3-0.4-3.3
						C365.1,222.6,364.7,222.7,364.2,222.9"/>
					<path class="st17" d="M366.2,223.2c-0.4-0.7-1.1-0.8-2-0.3l-18.9,13.6l13.4-51.5c1.4-5.2,1.3-6.6,0.8-7.1
						c-0.2-0.3-0.6-0.3-1.1-0.1l-28.7,78l18.1-14.5c1.7-1.4,3.3-1.1,3.7,0.6c0.2,0.9,0,1.9-0.5,3l-35.9,80.2l0.2,0
						c0.9,0.1,2.1-0.9,2.8-2.2l47.6-96.9C366.4,225,366.6,223.9,366.2,223.2"/>
				</g>
			</g>
		</g>
	</g>
</g>
<ellipse transform="matrix(0.8655 -0.5009 0.5009 0.8655 -46.5612 295.0263)" class="st18" cx="526.1" cy="234.2" rx="34.1" ry="2.7"/>
<g>
	<g>
		<path id="XMLID_31_" class="st19" d="M115.7,312.8l2.6,2.7c0,0,1.4-0.9,7.1-1.5c8.2-0.7,8.9-2.4,10.7-4.2
			c2.5-2.6,6.2-7.9,7.9-10.2c1.7-2.3,3.4-7.5,5.5-10.6c2.1-3.1,3.4-4.9,3.4-4.9s0.6-1.5-0.4-1.7c-1-0.1-2.7,1-4.1,2.9
			c-1.4,1.9-6.2,9.9-9.7,12.5c-3.5,2.6-6.9,10.5-10.2,11.2c-3.3,0.7-11.3,2.3-11.3,2.3L115.7,312.8z"/>
		<path id="XMLID_29_" class="st19" d="M115.6,305.6c1.2-1.9,5.3-6,8.5-5.4c4.7,0.9,8.3,1.6,11.7-0.3c3.4-1.9,7.7-5.1,7.5-2.3
			c-0.2,2.8-5.6,10.9-11,13.4c-5.3,2.5-11.8,3.6-13.7,3.3c-1.9-0.3-3.1-0.8-3.1-0.8L115.6,305.6z"/>
		<g id="XMLID_27_" class="st8">
			<path d="M127.6,308.6c1.7-0.9,3.3-2.2,5.2-2.8c1.9-0.5,3.8-1.2,5.5-2.1c1.7-0.9,3.3-2.1,4.3-3.9c0.2-0.4,0.5-0.9,0.6-1.3
				c0.1-0.5,0.2-1-0.1-1.4c-0.3-0.4-0.8-0.5-1.3-0.4c-0.5,0.1-0.9,0.3-1.4,0.5c0.4-0.2,0.9-0.4,1.4-0.5c0.5-0.1,1.1-0.1,1.4,0.4
				c0.3,0.5,0.2,1,0.1,1.5c-0.1,0.5-0.3,0.9-0.6,1.4c-1,1.8-2.6,3-4.4,4c-1.8,0.9-3.6,1.6-5.6,2.1c-0.9,0.2-1.8,0.8-2.7,1.2
				C129.3,307.6,128.5,308.1,127.6,308.6z"/>
		</g>
		<path id="XMLID_14_" class="st20" d="M139.8,301.2l-0.1-2.8c0-0.2,0.1-0.4,0.3-0.5l1.4-0.9c0.8-0.5,1.5-0.2,1.6,0.8l0,0
			c0,0.9-0.6,2.1-1.4,2.6l-1.4,0.9C140,301.5,139.8,301.4,139.8,301.2z"/>
		<path id="XMLID_13_" class="st20" d="M153,284c-0.4,0-0.8,0.3-1.1,0.8l-0.6,0.9c-0.2,0.3-0.2,0.6-0.1,0.7l0.2,0.2
			c1.1-1.6,1.7-2.4,1.7-2.4S152.9,284.1,153,284z"/>
		<ellipse transform="matrix(0.5 -0.866 0.866 0.5 -207.8763 257.4213)" class="st19" cx="119" cy="308.7" rx="7.9" ry="4.5"/>
	</g>
	<path id="XMLID_2_" class="st21" d="M139.9,294.5c-2.2,3.2-5.3,5-7.6,4.4l-7-2c-1.2-0.3-2.1-1.2-2.6-2.5c-2-5.5,3.8-16.6,10.3-16.9
		c0.1,0,0.3,0,0.4,0l2.6,0l2.6-3.1c0.1-0.2,0.3-0.3,0.4-0.5c6.5-7.1,12.3-2.8,10.3,5c-0.5,1.9-1.4,3.8-2.6,5.5L139.9,294.5z"/>
</g>
</svg>
