<svg width="1016.3" height="1018.22" xmlns="http://www.w3.org/2000/svg">
 <defs>
  <style>.cls-1{fill:#fecf37;}.cls-2{fill:#40afff;}.cls-3{fill:#f1b58a;}.cls-4{fill:#f19b78;}.cls-5{fill:#ec5e51;}.cls-6{fill:#9c4c11;}.cls-7{fill:#7e3911;}.cls-8{fill:#735c4a;}.cls-9{fill:#4a2a27;}</style>
 </defs>
 <title>Icons_Build or Join a Team</title>
 <g>
  <title>background</title>
  <rect fill="none" id="canvas_background" height="402" width="582" y="-1" x="-1"/>
 </g>
 <g>
  <title>Layer 1</title>
  <g stroke="null" id="Layer_2">
   <circle stroke="null" id="svg_1" r="501.400024" cy="509.776636" cx="508.190029" class="cls-1"/>
   <path stroke="null" id="svg_2" d="m282.227723,517.296406c-90.840293,0 -164.487267,43.334057 -164.487267,134.149735a176.511514,176.511514 0 0 0 1.304575,21.390114a287.991174,287.991174 0 0 0 326.37769,-0.393834a177.545328,177.545328 0 0 0 1.230732,-20.922436c0.049229,-90.889522 -73.585437,-134.223579 -164.42573,-134.223579z" class="cls-2"/>
   <path stroke="null" id="svg_3" d="m225.441771,451.439962l113.571904,0a0,0 0 0 1 0,0l0,86.508118a56.785952,56.785952 0 0 1 -56.785952,56.785952l0,0a56.785952,56.785952 0 0 1 -56.785952,-56.785952l0,-86.508118a0,0 0 0 1 0,0z" class="cls-3"/>
   <path stroke="null" id="svg_4" d="m225.441771,498.010843c14.325715,15.187227 32.885146,25.094616 56.515191,25.094616c23.925421,0 42.644847,-10.17815 57.044406,-25.685367l0,-45.980129l-113.559597,0l0,46.57088z" class="cls-4"/>
   <path stroke="null" id="svg_5" d="m182.833846,358.113592c0,-50.964592 -4.516785,-92.304863 99.123116,-92.304863s99.110809,41.30335 99.110809,92.304863s-23.65466,152.0938 -99.110809,152.0938s-99.123116,-101.129208 -99.123116,-152.0938z" class="cls-3"/>
   <ellipse stroke="null" id="svg_6" ry="36.786565" rx="19.11326" cy="385.485061" cx="182.5877" class="cls-3"/>
   <ellipse stroke="null" id="svg_7" ry="36.786565" rx="19.11326" cy="385.485061" cx="379.775503" class="cls-3"/>
   <path stroke="null" id="svg_8" d="m281.944655,226.892998c-23.531587,0 -104.88294,13.082676 -104.88294,94.766326c0,34.829702 12.614998,67.973301 12.614998,67.973301s14.498017,-86.754264 14.498017,-86.754264s10.867359,-36.921945 74.028501,-20.503987c68.687126,-16.528724 81.794416,20.503987 81.794416,20.503987l14.498017,86.852723c0.123073,-1.809175 12.627305,-34.017419 12.627305,-67.973301c0,-81.819031 -81.634421,-94.864785 -105.178315,-94.864785z" class="cls-5"/>
   <path stroke="null" id="svg_9" d="m734.164642,517.296406c-90.840293,0 -164.487267,43.334057 -164.487267,134.149735a176.511514,176.511514 0 0 0 1.316883,21.365499a287.991174,287.991174 0 0 0 326.37769,-0.393834a177.545328,177.545328 0 0 0 1.230732,-20.922436c0.036922,-90.864908 -73.597744,-134.198964 -164.438037,-134.198964z" class="cls-5"/>
   <path stroke="null" id="svg_10" d="m677.37869,451.439962l113.571904,0a0,0 0 0 1 0,0l0,86.508118a56.785952,56.785952 0 0 1 -56.785952,56.785952l0,0a56.785952,56.785952 0 0 1 -56.785952,-56.785952l0,-86.508118a0,0 0 0 1 0,0z" class="cls-6"/>
   <path stroke="null" id="svg_11" d="m677.37869,498.010843c14.325715,15.187227 32.885146,25.094616 56.515191,25.094616c23.925421,0 42.644847,-10.17815 57.044406,-25.685367l0,-45.980129l-113.559597,0l0,46.57088z" class="cls-7"/>
   <path stroke="null" id="svg_12" d="m634.721536,358.113592c0,-50.964592 44.380178,-92.304863 99.123116,-92.304863s99.110809,41.30335 99.110809,92.304863s-23.65466,152.0938 -99.110809,152.0938s-99.123116,-101.129208 -99.123116,-152.0938z" class="cls-6"/>
   <ellipse stroke="null" id="svg_13" ry="36.786565" rx="19.11326" cy="385.485061" cx="634.524619" class="cls-6"/>
   <ellipse stroke="null" id="svg_14" ry="36.786565" rx="19.11326" cy="385.485061" cx="831.712422" class="cls-6"/>
   <path stroke="null" id="svg_15" d="m508.190029,692.663339c-101.35074,0 -183.514376,48.355441 -183.514376,149.706181a200.203095,200.203095 0 0 0 1.464571,23.839269a321.38092,321.38092 0 0 0 364.14884,-0.443063a197.729325,197.729325 0 0 0 1.415341,-23.383899c0,-101.363047 -82.163636,-149.718489 -183.514376,-149.718489z" class="cls-6"/>
   <path stroke="null" id="svg_16" d="m444.831971,619.17636l126.765346,0a0,0 0 0 1 0,0l0,96.575502a63.358058,63.358058 0 0 1 -63.407288,63.419595l0,0a63.358058,63.358058 0 0 1 -63.358058,-63.358058l0,-96.637038a0,0 0 0 1 0,0z" class="cls-3"/>
   <path stroke="null" id="svg_17" d="m397.30112,515.068782c0,-56.859796 49.512329,-102.962998 110.593534,-102.962998s110.581226,46.103202 110.581226,102.962998s-26.386884,169.693261 -110.51969,169.693261s-110.65507,-112.833465 -110.65507,-169.693261z" class="cls-3"/>
   <path stroke="null" id="svg_18" d="m508.485405,563.350379l-0.529215,0c-64.699556,0.467678 -71.850106,73.843891 -71.850106,73.843891s0.529215,3.421434 9.968925,15.581061c4.652165,-39.937238 33.229751,-61.536576 61.88118,-61.536576l0.603058,0c28.663737,0 57.216708,21.574723 61.868873,61.536576c9.439711,-12.159627 9.981233,-15.581061 9.981233,-15.581061s-7.224394,-73.400827 -71.92395,-73.843891z" class="cls-8"/>
   <ellipse stroke="null" id="svg_19" ry="41.044896" rx="21.328577" cy="545.603231" cx="397.030359" class="cls-3"/>
   <ellipse stroke="null" id="svg_20" ry="41.044896" rx="21.328577" cy="545.603231" cx="617.023617" class="cls-3"/>
   <path stroke="null" id="svg_21" d="m625.220289,474.442334c0,-91.234127 -91.074132,-105.84291 -117.337942,-105.84291s-117.03026,14.596476 -117.03026,105.84291c0,38.854194 2.806068,80.772909 2.806068,80.772909c19.98708,96.760112 57.179786,125.940756 77.0561,140.894144l0,0c9.845852,7.249009 22.977757,11.691949 37.475775,11.691949c16.245656,0 30.829824,-5.575214 40.872594,-14.424173c20.516294,-15.802593 54.607557,-46.977022 73.450057,-138.149612l-0.098459,-0.049229c0.147688,-2.067629 2.806068,-42.841764 2.806068,-80.735987zm-67.690233,171.194753s-27.654537,-11.261193 -49.389256,-11.261193s-49.41387,11.371959 -49.41387,11.371959c-29.032956,-23.97465 -48.207753,-78.126836 -53.782967,-95.467843c0,-0.073844 -5.673672,-53.721431 16.171812,-59.579713c-1.070736,-25.057694 0,-37.315779 0,-37.315779s23.740811,-21.808562 82.594392,-22.879299c59.259722,1.070736 91.258742,22.879299 91.258742,22.879299s1.070736,12.307315 0,37.315779c21.857792,5.870589 16.171812,59.579713 16.171812,59.579713l0.073844,0c-5.575214,17.390236 -24.700781,71.357813 -53.635279,95.357078l-0.049229,0z" class="cls-8"/>
   <path stroke="null" id="svg_22" d="m313.562148,205.29366a99.258497,99.258497 0 0 1 -16.590261,20.983972c1.809175,-4.664472 2.326083,-10.522754 -0.246146,-17.599461c-7.741301,-21.328577 -27.531464,-15.49491 -30.965205,1.464571s-13.698042,27.211474 -15.654905,28.528356l28.78681,1.353805a40.24492,40.24492 0 0 1 -7.704379,3.692195l55.936747,22.239318s39.309565,-5.525984 38.706506,-45.377071s-36.823487,-41.487959 -52.269167,-15.285685z" class="cls-5"/>
   <path stroke="null" id="svg_23" d="m634.635385,348.698496s114.901094,-18.904036 100.464613,-80.662143l0,-35.469682s-70.447072,-5.673672 -96.550887,57.94284c-17.082553,41.598725 -3.913726,58.188986 -3.913726,58.188986z" class="cls-9"/>
   <path stroke="null" id="svg_24" d="m832.709314,348.698496s-114.901094,-18.904036 -100.464613,-80.662143l0,-35.469682s70.447072,-5.673672 96.550887,57.94284c17.082553,41.598725 3.913726,58.188986 3.913726,58.188986z" class="cls-9"/>
   <path stroke="null" id="svg_25" d="m634.635385,348.698496l3.692195,33.96819s26.63303,-15.876437 18.460973,-46.558573c-18.374821,-10.990432 -22.153167,12.590383 -22.153167,12.590383z" class="cls-9"/>
   <path stroke="null" id="svg_26" d="m833.00469,348.698496l-3.692195,33.96819s-26.63303,-15.876437 -18.460973,-46.558573c18.436358,-10.990432 22.153167,12.590383 22.153167,12.590383z" class="cls-9"/>
   <path stroke="null" id="svg_27" d="m723.124981,276.688395a76.305354,76.305354 0 0 1 -55.73983,34.140492c-10.608906,1.107658 -18.817885,-0.492293 -28.491435,-4.233716c-10.116613,-3.913726 -21.020894,-4.098336 -30.116,-10.756593s-14.658012,-20.147075 -9.033569,-30.152922c0.947663,-1.686102 2.215317,-3.495277 1.747639,-5.365989a6.399804,6.399804 0 0 0 -2.276853,-2.97837c-4.455248,-3.85219 -9.119721,-7.728994 -11.876559,-12.947296s-3.138365,-12.171935 0.775361,-16.577953c2.227624,-2.523 5.587521,-3.962955 7.384389,-6.793638c3.556814,-5.513677 -0.455371,-12.947296 1.058429,-19.334792s7.962833,-10.116613 14.030339,-12.504232s12.811915,-4.430633 16.713334,-9.661242c2.461463,-3.372204 3.495277,-7.642843 5.513677,-11.335037s5.907511,-7.039784 10.030462,-6.153658c4.639858,0.984585 8.775116,6.953633 12.799608,4.430633a10.731979,10.731979 0 0 0 2.461463,-2.646073a13.008832,13.008832 0 0 1 23.186982,7.950526c8.332052,-5.329067 19.248641,-1.636873 28.380669,2.178395c2.33839,0.972278 4.787546,2.0184 6.387497,3.98757c2.276853,2.806068 3.692195,7.568999 2.646073,13.34113c1.772253,7.716687 9.255101,8.615121 13.316515,15.457988c3.16298,5.292146 6.621336,14.091876 2.461463,20.540909c0.972278,17.882529 -3.286053,36.94656 -11.359652,49.41387z" class="cls-9"/>
  </g>
 </g>
</svg>