<?xml version="1.0" encoding="UTF-8"?>
<svg width="72px" height="72px" viewBox="0 0 72 72" version="1.1" xmlns="http://www.w3.org/2000/svg" xmlns:xlink="http://www.w3.org/1999/xlink">
    <!-- Generator: Sketch 48.2 (47327) - http://www.bohemiancoding.com/sketch -->
    <title>carbon-logo-with-shadow</title>
    <desc>Created with Sketch.</desc>
    <defs>
        <path d="M26.6995732,53 L15.4136321,53 C14.3336648,53 13.3343502,52.4373765 12.786785,51.5210604 L4.42077192,37.5210604 C3.85974269,36.582213 3.85974269,35.417787 4.42077192,34.4789396 L12.786785,20.4789396 C13.3343502,19.5626235 14.3336648,19 15.4136321,19 L26.6995732,19 C28.8109727,19 30.7669697,17.8902243 31.8500388,16.0777759 L38.1836104,5.47893962 C38.7311756,4.56262353 39.7304902,4 40.8104575,4 L55.6100244,4 C56.6899917,4 57.6893064,4.56262353 58.2368716,5.47893962 L66.6028846,19.4789396 C67.1639138,20.417787 67.1639138,21.582213 66.6028846,22.5210604 L60.3874366,32.9222241 C59.2547241,34.8177478 59.2547241,37.1822522 60.3874366,39.0777759 L66.6028846,49.4789396 C67.1639138,50.417787 67.1639138,51.582213 66.6028846,52.5210604 L58.2368716,66.5210604 C57.6893064,67.4373765 56.6899917,68 55.6100244,68 L40.8104575,68 C39.7304902,68 38.7311756,67.4373765 38.1836104,66.5210604 L31.8500388,55.9222241 C30.7669697,54.1097757 28.8109727,53 26.6995732,53 Z M15.1108832,24.4789396 L9.13515962,34.4789396 C8.5741304,35.417787 8.5741304,36.582213 9.13515962,37.5210604 L15.1108832,47.5210604 C15.6584484,48.4373765 16.657763,49 17.7377304,49 L27.8891008,49 C28.9690681,49 29.9683827,48.4373765 30.5159479,47.5210604 L36.4916715,37.5210604 C37.0527007,36.582213 37.0527007,35.417787 36.4916715,34.4789396 L30.5159479,24.4789396 C29.9683827,23.5626235 28.9690681,23 27.8891008,23 L17.7377304,23 C16.657763,23 15.6584484,23.5626235 15.1108832,24.4789396 Z M40.5077086,9.47893962 L34.531985,19.4789396 C33.9709558,20.417787 33.9709558,21.582213 34.531985,22.5210604 L40.5077086,32.5210604 C41.0552738,33.4373765 42.0545884,34 43.1345558,34 L53.2859262,34 C54.3658935,34 55.3652081,33.4373765 55.9127733,32.5210604 L61.8884969,22.5210604 C62.4495261,21.582213 62.4495261,20.417787 61.8884969,19.4789396 L55.9127733,9.47893962 C55.3652081,8.56262353 54.3658935,8 53.2859262,8 L43.1345558,8 C42.0545884,8 41.0552738,8.56262353 40.5077086,9.47893962 Z M40.5077086,39.4789396 L34.531985,49.4789396 C33.9709558,50.417787 33.9709558,51.582213 34.531985,52.5210604 L40.5077086,62.5210604 C41.0552738,63.4373765 42.0545884,64 43.1345558,64 L53.2859262,64 C54.3658935,64 55.3652081,63.4373765 55.9127733,62.5210604 L61.8884969,52.5210604 C62.4495261,51.582213 62.4495261,50.417787 61.8884969,49.4789396 L55.9127733,39.4789396 C55.3652081,38.5626235 54.3658935,38 53.2859262,38 L43.1345558,38 C42.0545884,38 41.0552738,38.5626235 40.5077086,39.4789396 Z" id="path-1"></path>
        <filter x="-11.1%" y="-7.8%" width="122.2%" height="121.9%" filterUnits="objectBoundingBox" id="filter-2">
            <feOffset dx="0" dy="2" in="SourceAlpha" result="shadowOffsetOuter1"></feOffset>
            <feGaussianBlur stdDeviation="2" in="shadowOffsetOuter1" result="shadowBlurOuter1"></feGaussianBlur>
            <feColorMatrix values="0 0 0 0 0   0 0 0 0 0   0 0 0 0 0  0 0 0 0.1 0" type="matrix" in="shadowBlurOuter1"></feColorMatrix>
        </filter>
    </defs>
    <g id="Page-1" stroke="none" stroke-width="1" fill="none" fill-rule="evenodd">
        <g id="carbon-logo-with-shadow" fill-rule="nonzero">
            <g id="molecule">
                <use fill="black" fill-opacity="1" filter="url(#filter-2)" xlink:href="#path-1"></use>
                <use fill="#242426" fill-rule="evenodd" xlink:href="#path-1"></use>
            </g>
        </g>
    </g>
</svg>