<svg width="46" height="54" viewBox="0 0 46 54" fill="none" xmlns="http://www.w3.org/2000/svg">
<path d="M28.5915 4.2041L28.5582 10.7458L23.0664 13.95V7.40822L28.5915 4.2041Z" fill="#1792FF"/>
<path d="M23.0666 7.40822V13.95L17.5083 10.7458L17.5416 4.2041L23.0666 7.40822Z" fill="#A4D8FF"/>
<path d="M28.5931 4.20412L23.068 7.40824L17.543 4.20412L23.0347 1L28.5931 4.20412Z" fill="white"/>
<path d="M23.0333 1L17.5416 4.20412L17.5083 10.7459L23.0666 13.95L28.5584 10.7459L28.5917 4.20412L23.0333 1Z" stroke="#001423" stroke-miterlimit="10" stroke-linejoin="round"/>
<path d="M23.067 13.95V7.40822L17.542 4.2041" stroke="white" stroke-miterlimit="10" stroke-linecap="round" stroke-linejoin="round"/>
<path d="M28.5915 4.2041L23.0664 7.40822" stroke="white" stroke-miterlimit="10" stroke-linecap="round" stroke-linejoin="round"/>
<path d="M34.2502 7.44141L34.2169 13.9498L28.6919 17.1873L28.7252 10.6455L34.2502 7.44141Z" fill="#1792FF"/>
<path d="M28.7248 10.6455L28.6915 17.1873L23.1665 13.9498V7.44141L28.7248 10.6455Z" fill="#A4D8FF"/>
<path d="M34.2499 7.44142L28.7248 10.6455L23.1665 7.44142L28.6915 4.2373L34.2499 7.44142Z" fill="white"/>
<path d="M28.6915 4.2373L23.1665 7.44142V13.9498L28.6915 17.1873L34.2166 13.9498L34.2499 7.44142L28.6915 4.2373Z" stroke="#001423" stroke-miterlimit="10" stroke-linejoin="round"/>
<path d="M28.6915 17.1873L28.7248 10.6455L23.1665 7.44141" stroke="white" stroke-miterlimit="10" stroke-linecap="round" stroke-linejoin="round"/>
<path d="M34.2496 7.44141L28.7246 10.6455" stroke="white" stroke-miterlimit="10" stroke-linecap="round" stroke-linejoin="round"/>
<path d="M39.8078 10.7124L39.7746 17.2541L34.2495 20.4583L34.2828 13.9165L39.8078 10.7124Z" fill="#1792FF"/>
<path d="M34.283 13.9165L34.2497 20.4583L28.6914 17.2541L28.7247 10.7124L34.283 13.9165Z" fill="#A4D8FF"/>
<path d="M39.808 10.7124L34.2829 13.9165L28.7246 10.7124L34.2497 7.5083L39.808 10.7124Z" fill="white"/>
<path d="M34.2497 7.5083L28.7247 10.7124L28.6914 17.2542L34.2497 20.4583L39.7748 17.2542L39.8081 10.7124L34.2497 7.5083Z" stroke="#001423" stroke-miterlimit="10" stroke-linejoin="round"/>
<path d="M34.2497 20.4583L34.2829 13.9165L28.7246 10.7124" stroke="white" stroke-miterlimit="10" stroke-linecap="round" stroke-linejoin="round"/>
<path d="M39.8082 10.7124L34.2832 13.9165" stroke="white" stroke-miterlimit="10" stroke-linecap="round" stroke-linejoin="round"/>
<path d="M45.3332 13.9497L45.2999 20.4581L39.8081 23.6956V17.1538L45.3332 13.9497Z" fill="#1792FF"/>
<path d="M39.8083 17.1538V23.6956L34.25 20.4581V13.9497L39.8083 17.1538Z" fill="#A4D8FF"/>
<path d="M45.3334 13.9497L39.8083 17.1538L34.25 13.9497L39.775 10.7456L45.3334 13.9497Z" fill="white"/>
<path d="M39.775 10.7456L34.25 13.9497V20.4581L39.8083 23.6956L45.3001 20.4581L45.3334 13.9497L39.775 10.7456Z" stroke="#001423" stroke-miterlimit="10" stroke-linejoin="round"/>
<path d="M39.8083 23.6956V17.1538L34.25 13.9497" stroke="white" stroke-miterlimit="10" stroke-linecap="round" stroke-linejoin="round"/>
<path d="M45.3332 13.9497L39.8081 17.1538" stroke="white" stroke-miterlimit="10" stroke-linecap="round" stroke-linejoin="round"/>
<path d="M23.1666 7.30811L23.1334 13.8499L17.6416 17.0873V10.5456L23.1666 7.30811Z" fill="#1792FF"/>
<path d="M17.6418 10.5456V17.0873L12.0835 13.8499V7.30811L17.6418 10.5456Z" fill="#A4D8FF"/>
<path d="M23.1669 7.30812L17.6418 10.5456L12.0835 7.30812L17.6085 4.104L23.1669 7.30812Z" fill="white"/>
<path d="M17.6085 4.104L12.0835 7.30812V13.8499L17.6418 17.0874L23.1336 13.8499L23.1669 7.30812L17.6085 4.104Z" stroke="#001423" stroke-miterlimit="10" stroke-linejoin="round"/>
<path d="M17.6418 17.0873V10.5456L12.0835 7.30811" stroke="white" stroke-miterlimit="10" stroke-linecap="round" stroke-linejoin="round"/>
<path d="M23.1666 7.30811L17.6416 10.5456" stroke="white" stroke-miterlimit="10" stroke-linecap="round" stroke-linejoin="round"/>
<path d="M17.7414 10.4453L17.7082 16.9537L12.1831 20.1912L12.2164 13.6494L17.7414 10.4453Z" fill="#1792FF"/>
<path d="M12.2165 13.6494L12.1832 20.1912L6.6582 16.9537V10.4453L12.2165 13.6494Z" fill="#A4D8FF"/>
<path d="M17.7416 10.4455L12.2165 13.6496L6.6582 10.4455L12.1832 7.20801L17.7416 10.4455Z" fill="white"/>
<path d="M12.1832 7.20801L6.6582 10.4455V16.9539L12.1832 20.1914L17.7083 16.9539L17.7416 10.4455L12.1832 7.20801Z" stroke="#001423" stroke-miterlimit="10" stroke-linejoin="round"/>
<path d="M12.1832 20.1912L12.2165 13.6494L6.6582 10.4453" stroke="white" stroke-miterlimit="10" stroke-linecap="round" stroke-linejoin="round"/>
<path d="M17.7414 10.4453L12.2163 13.6494" stroke="white" stroke-miterlimit="10" stroke-linecap="round" stroke-linejoin="round"/>
<path d="M12.0832 33.3413V39.8831L6.55811 43.1205V36.5788L12.0832 33.3413Z" fill="#1792FF"/>
<path d="M6.55833 36.5788V43.1205L1 39.8831L1.03328 33.3413L6.55833 36.5788Z" fill="#A4D8FF"/>
<path d="M12.0833 33.3418L6.55825 36.5793L1.0332 33.3418L6.52497 30.1377L12.0833 33.3418Z" fill="white"/>
<path d="M6.52505 30.1377L1.03328 33.3418L1 39.8836L6.55833 43.1211L12.0834 39.8836V33.3418L6.52505 30.1377Z" stroke="#001423" stroke-miterlimit="10" stroke-linejoin="round"/>
<path d="M6.55825 43.1205V36.5788L1.0332 33.3413" stroke="white" stroke-miterlimit="10" stroke-linecap="round" stroke-linejoin="round"/>
<path d="M12.0832 33.3413L6.55811 36.5788" stroke="white" stroke-miterlimit="10" stroke-linecap="round" stroke-linejoin="round"/>
<path d="M17.7746 36.4785L17.7413 42.9869L12.2495 46.2244V39.6826L17.7746 36.4785Z" fill="#1792FF"/>
<path d="M12.2497 39.6826V46.2244L6.69141 42.9869L6.72469 36.4785L12.2497 39.6826Z" fill="#A4D8FF"/>
<path d="M17.7762 36.4787L12.2511 39.6828L6.72607 36.4787L12.2178 33.2412L17.7762 36.4787Z" fill="white"/>
<path d="M12.2165 33.2412L6.72469 36.4787L6.69141 42.9871L12.2497 46.2246L17.7415 42.9871L17.7748 36.4787L12.2165 33.2412Z" stroke="#001423" stroke-miterlimit="10" stroke-linejoin="round"/>
<path d="M12.2501 46.2244V39.6826L6.7251 36.4785" stroke="white" stroke-miterlimit="10" stroke-linecap="round" stroke-linejoin="round"/>
<path d="M17.7746 36.4785L12.2495 39.6826" stroke="white" stroke-miterlimit="10" stroke-linecap="round" stroke-linejoin="round"/>
<path d="M23.3992 20.1914L23.3659 26.7332L17.8408 29.9706L17.8741 23.4289L23.3992 20.1914Z" fill="#1792FF"/>
<path d="M17.8743 23.4289L17.841 29.9706L12.2827 26.7332L12.316 20.1914L17.8743 23.4289Z" fill="#A4D8FF"/>
<path d="M23.3993 20.1914L17.8742 23.4289L12.3159 20.1914L17.841 16.9873L23.3993 20.1914Z" fill="white"/>
<path d="M17.841 16.9873L12.316 20.1914L12.2827 26.7332L17.841 29.9707L23.3661 26.7332L23.3994 20.1914L17.841 16.9873Z" stroke="#001423" stroke-miterlimit="10" stroke-linejoin="round"/>
<path d="M17.841 29.9706L17.8742 23.4289L12.3159 20.1914" stroke="white" stroke-miterlimit="10" stroke-linecap="round" stroke-linejoin="round"/>
<path d="M23.3996 20.1914L17.8745 23.4289" stroke="white" stroke-miterlimit="10" stroke-linecap="round" stroke-linejoin="round"/>
<path d="M17.7414 17.0874L17.7082 23.6291L12.1831 26.8666L12.2164 20.2915L17.7414 17.0874Z" fill="#1792FF"/>
<path d="M12.2165 20.2915L12.1832 26.8666L6.6582 23.6291V17.0874L12.2165 20.2915Z" fill="#A4D8FF"/>
<path d="M17.7416 17.0874L12.2165 20.2915L6.6582 17.0874L12.1832 13.8833L17.7416 17.0874Z" fill="white"/>
<path d="M12.1832 13.8833L6.6582 17.0874V23.6292L12.1832 26.8667L17.7083 23.6292L17.7416 17.0874L12.1832 13.8833Z" stroke="#001423" stroke-miterlimit="10" stroke-linejoin="round"/>
<path d="M12.1832 26.8666L12.2165 20.2915L6.6582 17.0874" stroke="white" stroke-miterlimit="10" stroke-linecap="round" stroke-linejoin="round"/>
<path d="M17.7414 17.0874L12.2163 20.2915" stroke="white" stroke-miterlimit="10" stroke-linecap="round" stroke-linejoin="round"/>
<path d="M23.3992 20.4248L23.3659 26.9666L17.8408 30.1707L17.8741 23.6289L23.3992 20.4248Z" fill="#1792FF"/>
<path d="M17.8743 23.6289L17.841 30.1707L12.2827 26.9666L12.316 20.4248L17.8743 23.6289Z" fill="#A4D8FF"/>
<path d="M23.3993 20.4248L17.8742 23.6289L12.3159 20.4248L17.841 17.2207L23.3993 20.4248Z" fill="white"/>
<path d="M17.841 17.2207L12.316 20.4248L12.2827 26.9666L17.841 30.1707L23.3661 26.9666L23.3994 20.4248L17.841 17.2207Z" stroke="#001423" stroke-miterlimit="10" stroke-linejoin="round"/>
<path d="M17.841 30.1707L17.8742 23.6289L12.3159 20.4248" stroke="white" stroke-miterlimit="10" stroke-linecap="round" stroke-linejoin="round"/>
<path d="M23.3996 20.4248L17.8745 23.6289" stroke="white" stroke-miterlimit="10" stroke-linecap="round" stroke-linejoin="round"/>
<path d="M23.3992 20.4248L23.3659 26.9666L17.8408 30.1707L17.8741 23.6289L23.3992 20.4248Z" fill="#1792FF"/>
<path d="M17.8743 23.6289L17.841 30.1707L12.2827 26.9666L12.316 20.4248L17.8743 23.6289Z" fill="#A4D8FF"/>
<path d="M23.3993 20.4248L17.8742 23.6289L12.3159 20.4248L17.841 17.2207L23.3993 20.4248Z" fill="white"/>
<path d="M17.841 17.2207L12.316 20.4248L12.2827 26.9666L17.841 30.1707L23.3661 26.9666L23.3994 20.4248L17.841 17.2207Z" stroke="#001423" stroke-miterlimit="10" stroke-linejoin="round"/>
<path d="M17.841 30.1707L17.8742 23.6289L12.3159 20.4248" stroke="white" stroke-miterlimit="10" stroke-linecap="round" stroke-linejoin="round"/>
<path d="M23.3996 20.4248L17.8745 23.6289" stroke="white" stroke-miterlimit="10" stroke-linecap="round" stroke-linejoin="round"/>
<path d="M12.0832 26.7661V33.3079L6.55811 36.512V29.9702L12.0832 26.7661Z" fill="#1792FF"/>
<path d="M6.55833 29.9702V36.512L1 33.3079L1.03328 26.7661L6.55833 29.9702Z" fill="#A4D8FF"/>
<path d="M12.0833 26.7661L6.55825 29.9703L1.0332 26.7661L6.52497 23.562L12.0833 26.7661Z" fill="white"/>
<path d="M6.52505 23.562L1.03328 26.7661L1 33.3079L6.55833 36.512L12.0834 33.3079V26.7661L6.52505 23.562Z" stroke="#001423" stroke-miterlimit="10" stroke-linejoin="round"/>
<path d="M6.55825 36.512V29.9702L1.0332 26.7661" stroke="white" stroke-miterlimit="10" stroke-linecap="round" stroke-linejoin="round"/>
<path d="M12.0832 26.7661L6.55811 29.9702" stroke="white" stroke-miterlimit="10" stroke-linecap="round" stroke-linejoin="round"/>
<path d="M12.0832 20.1914V26.7332L6.55811 29.9706V23.4289L12.0832 20.1914Z" fill="#1792FF"/>
<path d="M6.55833 23.4289V29.9706L1 26.7332L1.03328 20.1914L6.55833 23.4289Z" fill="#A4D8FF"/>
<path d="M12.0833 20.1914L6.55825 23.4289L1.0332 20.1914L6.52497 16.9873L12.0833 20.1914Z" fill="white"/>
<path d="M6.52505 16.9873L1.03328 20.1914L1 26.7332L6.55833 29.9707L12.0834 26.7332V20.1914L6.52505 16.9873Z" stroke="#001423" stroke-miterlimit="10" stroke-linejoin="round"/>
<path d="M6.55825 29.9706V23.4289L1.0332 20.1914" stroke="white" stroke-miterlimit="10" stroke-linecap="round" stroke-linejoin="round"/>
<path d="M12.0832 20.1914L6.55811 23.4289" stroke="white" stroke-miterlimit="10" stroke-linecap="round" stroke-linejoin="round"/>
<path d="M12.0832 13.6494V20.1912L6.55811 23.3953V16.8535L12.0832 13.6494Z" fill="#1792FF"/>
<path d="M6.55833 16.8535V23.3953L1 20.1912L1.03328 13.6494L6.55833 16.8535Z" fill="#A4D8FF"/>
<path d="M12.0833 13.6494L6.55825 16.8536L1.0332 13.6494L6.52497 10.4453L12.0833 13.6494Z" fill="white"/>
<path d="M6.52505 10.4453L1.03328 13.6494L1 20.1912L6.55833 23.3953L12.0834 20.1912V13.6494L6.52505 10.4453Z" stroke="#001423" stroke-miterlimit="10" stroke-linejoin="round"/>
<path d="M6.55825 23.3953V16.8535L1.0332 13.6494" stroke="white" stroke-miterlimit="10" stroke-linecap="round" stroke-linejoin="round"/>
<path d="M12.0832 13.6494L6.55811 16.8535" stroke="white" stroke-miterlimit="10" stroke-linecap="round" stroke-linejoin="round"/>
<path d="M17.7414 16.9868L17.7082 23.5286L12.1831 26.7327L12.2164 20.1909L17.7414 16.9868Z" fill="#1792FF"/>
<path d="M12.2165 20.1909L12.1832 26.7327L6.6582 23.5286V16.9868L12.2165 20.1909Z" fill="#A4D8FF"/>
<path d="M17.7416 16.9873L12.2165 20.1914L6.6582 16.9873L12.1832 13.7832L17.7416 16.9873Z" fill="white"/>
<path d="M12.1832 13.7832L6.6582 16.9873V23.5291L12.1832 26.7332L17.7083 23.5291L17.7416 16.9873L12.1832 13.7832Z" stroke="#001423" stroke-miterlimit="10" stroke-linejoin="round"/>
<path d="M12.1832 26.7327L12.2165 20.1909L6.6582 16.9868" stroke="white" stroke-miterlimit="10" stroke-linecap="round" stroke-linejoin="round"/>
<path d="M17.7414 16.9868L12.2163 20.1909" stroke="white" stroke-miterlimit="10" stroke-linecap="round" stroke-linejoin="round"/>
<path d="M23.3992 20.3247L23.3659 26.8665L17.8408 30.0706L17.8741 23.5288L23.3992 20.3247Z" fill="#1792FF"/>
<path d="M17.8743 23.5288L17.841 30.0706L12.2827 26.8665L12.316 20.3247L17.8743 23.5288Z" fill="#A4D8FF"/>
<path d="M23.3993 20.3247L17.8742 23.5288L12.3159 20.3247L17.841 17.1206L23.3993 20.3247Z" fill="white"/>
<path d="M17.841 17.1206L12.316 20.3247L12.2827 26.8665L17.841 30.0706L23.3661 26.8665L23.3994 20.3247L17.841 17.1206Z" stroke="#001423" stroke-miterlimit="10" stroke-linejoin="round"/>
<path d="M17.841 30.0706L17.8742 23.5288L12.3159 20.3247" stroke="white" stroke-miterlimit="10" stroke-linecap="round" stroke-linejoin="round"/>
<path d="M23.3996 20.3247L17.8745 23.5288" stroke="white" stroke-miterlimit="10" stroke-linecap="round" stroke-linejoin="round"/>
<path d="M23.3992 39.8164L23.3659 46.3581L17.8408 49.5623L17.8741 43.0205L23.3992 39.8164Z" fill="#1792FF"/>
<path d="M17.8743 43.0205L17.841 49.5623L12.2827 46.3581L12.316 39.8164L17.8743 43.0205Z" fill="#A4D8FF"/>
<path d="M23.3993 39.8164L17.8742 43.0205L12.3159 39.8164L17.841 36.6123L23.3993 39.8164Z" fill="white"/>
<path d="M17.841 36.6123L12.316 39.8164L12.2827 46.3582L17.841 49.5623L23.3661 46.3582L23.3994 39.8164L17.841 36.6123Z" stroke="#001423" stroke-miterlimit="10" stroke-linejoin="round"/>
<path d="M17.841 49.5623L17.8742 43.0205L12.3159 39.8164" stroke="white" stroke-miterlimit="10" stroke-linecap="round" stroke-linejoin="round"/>
<path d="M23.3996 39.8164L17.8745 43.0205" stroke="white" stroke-miterlimit="10" stroke-linecap="round" stroke-linejoin="round"/>
<path d="M28.9909 43.2539L28.9576 49.7956L23.4658 52.9998V46.458L28.9909 43.2539Z" fill="#1792FF"/>
<path d="M23.466 46.458V52.9998L17.9077 49.7956L17.941 43.2539L23.466 46.458Z" fill="#A4D8FF"/>
<path d="M28.9925 43.2539L23.4674 46.458L17.9424 43.2539L23.4341 40.0498L28.9925 43.2539Z" fill="white"/>
<path d="M23.4328 40.0498L17.941 43.2539L17.9077 49.7957L23.466 52.9998L28.9578 49.7957L28.9911 43.2539L23.4328 40.0498Z" stroke="#001423" stroke-miterlimit="10" stroke-linejoin="round"/>
<path d="M23.4665 52.9998V46.458L17.9414 43.2539" stroke="white" stroke-miterlimit="10" stroke-linecap="round" stroke-linejoin="round"/>
<path d="M28.9909 43.2539L23.4658 46.458" stroke="white" stroke-miterlimit="10" stroke-linecap="round" stroke-linejoin="round"/>
</svg>
