<?xml version="1.0" encoding="iso-8859-1"?>
<!-- Generator: Adobe Illustrator 18.0.0, SVG Export Plug-In . SVG Version: 6.00 Build 0)  -->
<!DOCTYPE svg PUBLIC "-//W3C//DTD SVG 1.1//EN" "http://www.w3.org/Graphics/SVG/1.1/DTD/svg11.dtd">
<svg version="1.1" id="Capa_1" xmlns="http://www.w3.org/2000/svg" xmlns:xlink="http://www.w3.org/1999/xlink" x="0px" y="0px"
	 viewBox="0 0 450.619 450.619" style="enable-background:new 0 0 450.619 450.619;" xml:space="preserve">
<g id="twitter_2_">
	<path d="M449.224,92.392c1.726-2.087,1.864-5.063,0.342-7.302c-1.523-2.24-4.344-3.209-6.918-2.37
		c-11.951,3.896-24.395,6.665-37.236,8.224c15.313-9.264,27.946-22.594,36.381-38.515c1.234-2.329,0.829-5.188-1.003-7.082
		c-1.832-1.895-4.675-2.394-7.045-1.241c-14.897,7.249-30.829,12.684-47.529,15.999c-17.954-19.28-43.509-31.329-71.808-31.329
		c-54.311,0-98.367,44.422-98.367,99.225c0,7.763,0.873,15.33,2.563,22.609c-74.352-3.771-141.058-36.795-189.015-87.905
		c-3.315-3.534-8.265-5.028-12.981-3.921c-4.717,1.107-8.49,4.646-9.883,9.288c-2.729,9.101-4.201,18.755-4.201,28.749
		c0,34.445,15.236,64.809,41.625,82.602c-7.125-0.23-17.07-2.438-25.951-4.827c-4.954-1.333-10.244,0.066-13.889,3.678
		c-3.644,3.611-5.082,8.884-3.799,13.851c9.564,37.023,40.707,65.873,78.008,73.432c-8.277,2.275-15.883,3.482-24.86,3.482
		c-0.003,0-0.006,0-0.009,0c-4.022,0-7.743,2.137-9.768,5.612c-2.025,3.476-2.044,7.761-0.063,11.262
		c16.696,29.52,48.12,49.6,84.018,50.282c-33.668,26.599-75.961,42.45-122.029,42.45c-0.028,0-0.057,0-0.085,0
		c-2.626-0.001-4.915,1.787-5.55,4.335c-0.635,2.549,0.549,5.2,2.868,6.433c38.881,20.67,83.181,32.432,130.182,32.432
		c180.923,0,279.884-151.216,279.884-282.331c0-4.318-0.094-8.565-0.281-12.836C426.318,116.836,438.567,105.29,449.224,92.392z"/>
</g>
<g>
</g>
<g>
</g>
<g>
</g>
<g>
</g>
<g>
</g>
<g>
</g>
<g>
</g>
<g>
</g>
<g>
</g>
<g>
</g>
<g>
</g>
<g>
</g>
<g>
</g>
<g>
</g>
<g>
</g>
</svg>
