<?xml version="1.0" encoding="UTF-8" standalone="no"?>
<!DOCTYPE svg PUBLIC "-//W3C//DTD SVG 1.1//EN" "http://www.w3.org/Graphics/SVG/1.1/DTD/svg11.dtd">
<svg version="1.1" xmlns="http://www.w3.org/2000/svg" xmlns:xlink="http://www.w3.org/1999/xlink" preserveAspectRatio="xMidYMid meet" viewBox="0 0 640 640" width="640" height="640"><defs><path d="M355.96 252.01L242.49 266.27C291.03 129.41 318 53.39 323.39 38.18C331.59 15.01 331.45 7.82 328.45 3.61C327.03 1.46 324.68 0.11 322.11 -0.02C319.83 -0.02 312.84 -0.02 294.88 24.49C269.28 59.01 64.52 335.11 38.92 369.62C35.1 375.87 37.07 384.03 43.32 387.85C45.41 389.12 47.81 389.8 50.26 389.79C56.98 389.18 90.57 386.11 151.04 380.6C94.51 525.36 63.1 605.79 56.81 621.87C54.06 628.58 57.24 636.26 63.94 639.05C65.5 639.61 67.14 639.9 68.79 639.9C73 640.09 77.06 638.29 79.76 635.06C108.41 598.93 337.58 309.88 366.23 273.75C370.72 267.97 369.67 259.64 363.88 255.15C361.61 253.39 358.84 252.41 355.96 252.37" id="b1vvmdNYKn"></path><path d="M367.7 259.64C365.49 254.99 360.8 252.03 355.66 252.01C348.09 252.96 310.27 257.71 242.18 266.27C290.72 129.41 317.69 53.39 323.08 38.18C331.28 15.01 331.14 7.82 328.14 3.61C326.71 1.48 324.36 0.14 321.8 -0.02C310.28 21.31 252.66 127.99 148.95 320.01C214.17 307.18 250.4 300.05 257.65 298.63C267.66 296.51 277.5 302.88 279.68 312.88C280.68 317.84 279.6 323 276.68 327.14C262.3 347.82 190.38 451.22 60.92 637.34C61.65 637.85 62.06 638.14 62.14 638.19C67.82 641.48 75.05 640.18 79.24 635.13C107.91 598.99 337.25 309.89 365.92 273.75C369.26 269.76 369.96 264.19 367.7 259.5" id="eFeIMbdqr"></path><path d="M555.96 104.27L587.98 168.31L523.93 168.31L459.89 168.31L491.91 104.27L523.93 40.22L555.96 104.27Z" id="agYn4I7qP"></path><path d="M491.91 517.75L459.89 453.71L523.93 453.71L587.98 453.71L555.96 517.75L523.93 581.8L491.91 517.75Z" id="b2CA51v2q"></path><path d="M512.7 168.31L535.17 168.31L535.17 453.71L512.7 453.71L512.7 168.31Z" id="c1ECgtUZEo"></path></defs><g><g><g><use xlink:href="#b1vvmdNYKn" opacity="1" fill="#ffb74d" fill-opacity="1"></use><g><use xlink:href="#b1vvmdNYKn" opacity="1" fill-opacity="0" stroke="#000000" stroke-width="1" stroke-opacity="0"></use></g></g><g><use xlink:href="#eFeIMbdqr" opacity="1" fill="#fecf37" fill-opacity="1"></use><g><use xlink:href="#eFeIMbdqr" opacity="1" fill-opacity="0" stroke="#000000" stroke-width="1" stroke-opacity="0"></use></g></g><g><use xlink:href="#agYn4I7qP" opacity="1" fill="#08e950" fill-opacity="1"></use></g><g><use xlink:href="#b2CA51v2q" opacity="1" fill="#ff0000" fill-opacity="1"></use></g><g><use xlink:href="#c1ECgtUZEo" opacity="1" fill="#e0e0e0" fill-opacity="1"></use><g><use xlink:href="#c1ECgtUZEo" opacity="1" fill-opacity="0" stroke="#7ce09a" stroke-width="1" stroke-opacity="1"></use></g></g></g></g></svg>