<?xml version="1.0" encoding="UTF-8" standalone="no"?>
<!DOCTYPE svg PUBLIC "-//W3C//DTD SVG 1.1//EN" "http://www.w3.org/Graphics/SVG/1.1/DTD/svg11.dtd">
<svg version="1.1" xmlns="http://www.w3.org/2000/svg" xmlns:xlink="http://www.w3.org/1999/xlink" preserveAspectRatio="xMidYMid meet" viewBox="152.82932238160197 -0.9999999999999982 336.34524743513225 644.024826510479" width="332.35" height="640.02"><defs><path d="M472.82 252.04L359.35 266.29C407.89 129.44 434.85 53.41 440.25 38.2C448.44 15.04 448.3 7.84 445.31 3.64C443.89 1.49 441.53 0.14 438.96 0C436.68 0 429.7 0 411.73 24.52C386.14 59.03 181.37 335.13 155.78 369.64C151.96 375.89 153.93 384.05 160.17 387.87C162.26 389.15 164.66 389.82 167.11 389.82C173.83 389.2 207.42 386.14 267.9 380.62C211.36 525.39 179.95 605.81 173.67 621.9C170.91 628.61 174.1 636.28 180.8 639.07C182.35 639.64 183.99 639.93 185.64 639.93C189.86 640.11 193.91 638.32 196.62 635.08C225.27 598.95 454.44 309.91 483.08 273.78C487.57 267.99 486.52 259.66 480.74 255.17C478.47 253.42 475.69 252.44 472.82 252.39" id="f4lSJufRk"></path><path d="M484.86 259.66C482.65 255.02 477.97 252.05 472.82 252.04C465.25 252.99 427.43 257.74 359.35 266.29C407.89 129.44 434.85 53.41 440.25 38.2C448.44 15.04 448.3 7.84 445.31 3.64C443.87 1.5 441.53 0.16 438.96 0C427.44 21.34 369.82 128.01 266.11 320.04C331.33 307.21 367.57 300.08 374.81 298.65C384.83 296.54 394.67 302.91 396.84 312.91C397.84 317.87 396.76 323.03 393.84 327.16C379.46 347.84 307.54 451.24 178.09 637.36C178.81 637.88 179.22 638.16 179.3 638.22C184.99 641.5 192.21 640.21 196.4 635.15C225.07 599.02 454.41 309.91 483.08 273.78C486.42 269.79 487.12 264.21 484.86 259.52" id="bb8VgcQkP"></path></defs><g><g><use xlink:href="#f4lSJufRk" opacity="1" fill="#d2d2d2" fill-opacity="1"></use><g><use xlink:href="#f4lSJufRk" opacity="1" fill-opacity="0" stroke="#000000" stroke-width="1" stroke-opacity="0"></use></g></g><g><use xlink:href="#bb8VgcQkP" opacity="1" fill="#e9e9e9" fill-opacity="1"></use><g><use xlink:href="#bb8VgcQkP" opacity="1" fill-opacity="0" stroke="#000000" stroke-width="1" stroke-opacity="0"></use></g></g></g></svg>