<?xml version="1.0" encoding="utf-8"?>
<!-- Generator: Adobe Illustrator 19.2.1, SVG Export Plug-In . SVG Version: 6.00 Build 0)  -->
<svg version="1.1" id="XMLID_2_" xmlns="http://www.w3.org/2000/svg" xmlns:xlink="http://www.w3.org/1999/xlink" x="0px" y="0px"
	 viewBox="0 0 64 64" enable-background="new 0 0 64 64" xml:space="preserve">
<g id="flat-icon-145">
	<g>
		<path fill="#CDDCF0" d="M16.0798,47.1873c-5.6793,5.5654-7.1317,7.4475-7.1317,11.1029c0,1.1045,0.8945,2,2,2s2-0.8955,2-2
			c0-2.1027,0.9355-3.3499,6-8.3123C17.9507,49.0006,17.049,48.1274,16.0798,47.1873z"/>
		<g>
			<path fill="#264C78" d="M21.8164,47.1873l1.4254-1.3827c-0.8645-0.8481-1.817-1.7717-2.8679-2.7903l-1.4258,1.3834
				C19.9333,45.3538,20.7847,46.1763,21.8164,47.1873z"/>
			<path fill="#ACB7C8" d="M16.0825,47.1898c-0.4983,0.4889-0.998,0.9788-1.4346,1.4158l0.14,0.1357
				c1.037,1.005,1.9313,1.875,2.7262,2.6545c0.4344-0.4342,0.9196-0.9124,1.4346-1.4174
				C17.9146,48.9653,17.074,48.152,16.0825,47.1898z"/>
		</g>
		<path fill="#C64047" d="M21.2025,52.2248h-7.3057c-1.1055,0-2,0.8955-2,2s0.8945,2,2,2h10.5797
			C23.9819,55.2345,23.0051,54.0663,21.2025,52.2248z"/>
		<path fill="#A4353B" d="M21.2025,52.2248h-0.0487c-0.6719,0-1.2164,0.8954-1.2164,2c0,1.1045,0.5446,2,1.2164,2h3.3228
			C23.9819,55.2345,23.0051,54.0663,21.2025,52.2248z"/>
		<g>
			<path fill="#3A71B2" d="M21.8152,17.3302c4.9917-4.9,7.1329-7.4849,7.1329-11.1055c0-1.1045-0.8945-2-2-2s-2,0.8955-2,2
				c0,2.0642-1.4343,3.8309-6.0018,8.3148C19.7896,15.3678,20.7463,16.2959,21.8152,17.3302z"/>
			<path fill="#3A71B2" d="M10.9696,32.2648c0-4.8299,4.6271-8.8978,7.9752-12.1427c-1.0475-1.011-2.0037-1.9369-2.8699-2.7882
				c-3.5576,3.4469-9.1053,8.3264-9.1053,14.9299c0,11.4296,17.9785,19.6094,17.9785,26.0264c0,1.1045,0.8945,2,2,2s2-0.8955,2-2
				C28.9481,49.2202,10.9696,41.6343,10.9696,32.2648z"/>
		</g>
		<path fill="#FDDA5F" d="M16.6395,12.2248h7.2668c1.1055,0,2-0.8955,2-2s-0.8945-2-2-2H13.4479
			C13.9779,9.2836,14.9779,10.5021,16.6395,12.2248z"/>
		<path fill="#7BC24D" d="M26.2797,29.1397c-0.4948-1.2496-1.2762-2.5444-2.38-3.9149c-3.6633,0-7.3508,0-11.8617,0
			c-1.1055,0-2,0.8955-2,2s0.8945,2,2,2c5.2946,0,9.3534,0,13.8203,0C26.0078,29.2248,26.1395,29.1708,26.2797,29.1397z"/>
		<path fill="#D3B74E" d="M17.02,8.2248h-3.5721c0.53,1.0588,1.53,2.2773,3.1916,4H17.02c-0.6718,0-1.2163-0.8955-1.2163-2
			C15.8037,9.1201,16.3483,8.2248,17.02,8.2248z"/>
		<g>
			<path fill="#264C78" d="M21.8127,17.3279c0.491-0.483,0.9827-0.9661,1.4219-1.4097l-0.2552-0.2472
				c-0.9878-0.9548-1.83-1.776-2.6094-2.542c-0.4285,0.4313-0.9235,0.9178-1.4243,1.4099
				C19.7885,15.3667,20.7446,16.2942,21.8127,17.3279z"/>
			<path fill="#264C78" d="M16.075,17.3339l-1.4318,1.3872c0.8553,0.8409,1.7667,1.7263,2.7737,2.7l0.0939,0.0909l1.4341-1.3899
				C17.8973,19.1111,16.9412,18.1852,16.075,17.3339z"/>
		</g>
		<path fill="#CDDCF0" d="M24.1005,19.5421c-8.7277-8.4562-11.1523-10.608-11.1523-13.3174c0-1.1045-0.8945-2-2-2s-2,0.8955-2,2
			c0,4.6279,3.4272,7.5241,12.3633,16.1846c3.8301,3.7256,5.6152,6.8574,5.6152,9.8555c0,4.8069-4.6102,8.8647-7.9785,12.1329
			c0.9852,0.956,1.8366,1.7785,2.8683,2.7896c3.5708-3.4636,9.1102-8.3375,9.1102-14.9235
			C30.9266,28.1144,28.7567,24.0714,24.1005,19.5421z"/>
		<path fill="#5886C5" d="M13.9469,39.2248c1.4281,0,10.8278,0,12.1907,0c1.1055,0,2-0.8955,2-2s-0.8945-2-2-2H11.5595
			C12.0414,36.4999,12.8251,37.8225,13.9469,39.2248z"/>
		<path fill="#ACB7C8" d="M18.9487,44.3971c0,0,1.8872,1.8293,2.8677,2.7902l3.8985-3.8471
			c-0.8635-0.8472-1.8149-1.7698-2.8644-2.7869C22.3615,41.0266,19.4065,43.9528,18.9487,44.3971z"/>
		<path fill="#5B986C" d="M23.9575,29.2248h2.3531c-0.4904-1.2714-1.277-2.5887-2.3994-3.9846c-0.649,0.0422-1.17,0.907-1.17,1.9846
			C22.7412,28.3293,23.2858,29.2248,23.9575,29.2248z"/>
		<path fill="#264C78" d="M13.3048,37.2248c0-1.1046,0.5446-2,1.2163-2h-2.9617c0.4819,1.2751,1.2656,2.5978,2.3875,4h0.5742
			C13.8494,39.2248,13.3048,38.3293,13.3048,37.2248z"/>
	</g>
	<g>
		<g>
			<g>
				<g>
					<g>
						<path fill="#565656" d="M47.3506,39.3165l10.7414,10.8044c1.0385,1.0407,1.0365,2.7264-0.0047,3.7647l-1.885,1.8801
							c-1.0407,1.038-2.7259,1.036-3.7641-0.0046L41.6868,44.9466L47.3506,39.3165z"/>
						<polygon fill="#454545" points="48.3291,40.3008 48.3291,51.6279 41.6673,44.966 47.3337,39.2996 						"/>
						<path fill="#CDCCCC" d="M34.4468,16.2248c-8.8366,0-16,7.1634-16,16s7.1634,16,16,16s16-7.1634,16-16
							S43.2834,16.2248,34.4468,16.2248z"/>
						<path fill="#CDDCF0" d="M45.6949,36.3868c-1.1117,3.0045-3.3268,5.3963-6.2376,6.7347
							c-1.5912,0.7315-3.2719,1.1027-4.9956,1.1027c-4.6765,0-8.9596-2.7434-10.9116-6.9889
							c-1.3384-2.9106-1.4633-6.1681-0.3514-9.1726c1.1117-3.0047,3.3268-5.3963,6.2376-6.7347
							c1.5907-0.7315,3.2724-1.1024,4.9983-1.1027c4.6747,0.0002,8.9569,2.7434,10.909,6.9887
							C46.6819,30.1248,46.8069,33.3823,45.6949,36.3868z"/>
					</g>
				</g>
			</g>
		</g>
		<path fill="#DEDEDD" d="M30.9266,18.6888l-0.6176-1.9042c-6.8273,1.826-11.8623,8.037-11.8623,15.4402h2
			C20.4468,25.7108,24.9019,20.2521,30.9266,18.6888z"/>
		<path fill="#DEDEDD" d="M48.4468,32.2248h-2.0137c-0.0007,1.4022-0.2369,2.8077-0.7382,4.162
			c-1.1117,3.0045-3.3269,5.3964-6.2377,6.7347c-0.6162,0.2833-1.2491,0.4957-1.8895,0.6703l0.5493,1.9303
			C44.0657,44.1075,48.4468,38.6845,48.4468,32.2248z"/>
		<g>
			<polygon fill="#83A6D0" points="29.9927,24.2248 34.4468,26.7958 34.4468,31.9384 29.9927,34.5103 25.5386,31.9384 
				25.5386,26.7958 			"/>
			<polygon fill="#3A71B2" points="38.9009,24.2248 43.3549,26.7958 43.3549,31.9384 38.9009,34.5103 34.4468,31.9384 
				34.4468,26.7958 			"/>
			<polygon fill="#A0BCDD" points="34.4468,31.9392 38.9009,34.5103 38.9009,39.6529 34.4468,42.2248 29.9927,39.6529 
				29.9927,34.5103 			"/>
		</g>
		<g>
			<path opacity="0.5" fill="#D5E2F2" d="M35.4513,32.5183l3.4496,1.9919L35.4513,32.5183z"/>
			<path fill="#D1DFF2" d="M38.9009,34.5103v4c2.2091,0,4-1.7909,4-4c0-0.729-0.2097-1.4033-0.5504-1.9919L38.9009,34.5103z"/>
		</g>
		<path fill="#BFD1E9" d="M35.4509,32.519c-0.3406,0.5885-0.55,1.2625-0.55,1.9913c0,2.2091,1.7909,4,4,4v-4L35.4509,32.519z"/>
		<path fill="#8BABD3" d="M38.9009,34.5103l3.4496-1.9919c-0.6918-1.1951-1.9695-2.0081-3.4496-2.0081s-2.7578,0.813-3.4496,2.0081
			L38.9009,34.5103z"/>
		<path opacity="0.8" fill="#839FC7" d="M24.5818,34.3592c0-6.6166,5.3829-11.9994,11.9994-11.9994
			c2.7598,0,5.2878,0.9552,7.3147,2.5293c-2.1966-2.8245-5.6022-4.6637-9.4491-4.6637c-6.6166,0-11.9994,5.3829-11.9994,11.9994
			c0,3.8469,1.8392,7.2525,4.6637,9.4491C25.537,39.647,24.5818,37.119,24.5818,34.3592z"/>
	</g>
</g>
</svg>
